<svg width="152" height="310" viewBox="0 0 152 310" fill="none" xmlns="http://www.w3.org/2000/svg">
    <g opacity="0.1" clip-path="url(#clip0_7_5877)">
        <path d="M41.4818 217.556C41.0299 215.663 39.7565 214.429 38.1751 213.483C36.799 212.639 35.2381 212.289 33.6566 211.981C30.0212 211.281 26.3243 211.055 22.6273 210.767C14.5351 210.129 6.42238 209.595 -1.66984 208.936C-4.99709 208.669 -8.30381 208.216 -11.5078 207.208C-13.9725 206.447 -16.2112 205.295 -18.1418 203.588C-21.3048 200.811 -22.2906 197.437 -20.9967 193.364C-19.4974 188.592 -16.3549 185.218 -12.2267 182.668C-6.10618 178.883 0.609949 176.682 7.65469 175.303C18.191 173.246 28.83 172.917 39.5101 172.958C55.7767 173.02 71.7762 175.036 87.4883 179.253C91.3495 180.281 95.1492 181.475 98.6818 183.408C100.345 184.313 101.947 185.321 103.365 186.576C109.177 191.678 110.019 199.824 105.275 205.974C103.015 208.895 100.099 211.035 96.9155 212.845C92.1916 215.519 87.0159 216.98 81.758 218.049C71.0163 220.25 60.1309 221.443 49.1632 221.937C48.9373 221.937 48.7319 221.958 48.506 221.937C47.6023 221.875 47.1915 222.163 47.3558 223.192C47.5407 224.406 47.5407 225.66 47.6639 226.874C48.2595 232.757 47.7461 238.64 47.3764 244.503C46.9656 250.736 46.4932 256.969 46.1646 263.202C45.4252 277.498 45.5074 291.816 45.3841 306.133C45.3841 306.791 45.4047 307.449 45.302 308.087C45.0966 309.218 44.1723 309.959 43.166 309.877C42.2006 309.815 41.5229 309.136 41.338 308.025C41.2764 307.676 41.2764 307.305 41.2764 306.935C41.4407 292.844 41.2148 278.733 41.9336 264.642C42.3239 257.092 42.9606 249.563 43.4124 242.035C43.7616 235.863 43.9875 229.692 43.2276 223.521C43.1043 222.595 43.0222 221.875 41.7693 221.834C35.464 221.711 29.1586 221.628 22.8943 222.801C16.4041 224.035 11.2284 227.429 7.018 232.408C2.25304 238.064 -1.21799 244.524 -4.42201 251.127C-9.88528 262.358 -14.3216 274.063 -19.4974 285.418C-21.8593 290.643 -24.098 295.93 -26.3983 301.175C-26.9323 302.41 -27.7539 302.862 -28.7397 302.533C-29.664 302.224 -30.1774 301.196 -29.8899 300.003C-29.6845 299.159 -29.3148 298.357 -29.0067 297.555C-24.632 286.323 -19.4768 275.421 -14.8556 264.271C-11.8159 256.948 -8.52973 249.749 -4.79171 242.775C-2.553 238.599 -0.0267487 234.629 2.88974 230.906C9.0924 222.924 17.2462 218.707 27.2896 217.946C31.4179 217.638 35.5461 217.432 39.6744 217.597C40.2495 217.617 40.8245 217.72 41.4818 217.412V217.556ZM38.1751 177.134C24.4142 177.134 17.123 177.71 6.91531 179.726C0.897493 180.919 -4.81224 182.976 -10.0701 186.206C-13.0277 188.037 -15.4718 190.361 -16.7452 193.714C-18.0802 197.191 -17.423 199.268 -14.3216 201.366C-11.9186 202.991 -9.18697 203.711 -6.39372 204.164C-0.149981 205.172 6.15538 205.357 12.4607 205.892C19.1769 206.447 25.9341 206.715 32.6297 207.599C38.6885 208.402 43.6794 210.623 45.877 216.897C46.1441 217.638 46.6781 217.864 47.3969 217.823C48.1158 217.782 48.8552 217.782 49.574 217.761C56.7625 217.576 63.8894 216.692 71.0163 215.745C76.993 214.943 82.9082 213.853 88.6385 211.96C93.3213 210.417 97.5933 208.175 101.044 204.575C104.001 201.469 104.987 197.849 103.529 193.735C102.605 191.143 100.633 189.435 98.3737 188.037C95.0876 185.98 91.4728 184.684 87.7553 183.655C71.2217 179.068 54.3595 176.99 38.1751 177.114V177.134Z" fill="white"/>
        <path d="M140.231 137.309C137.869 134.1 135.158 131.282 131.934 128.998C122.958 122.642 113.264 117.89 102.337 115.854C94.3274 114.373 86.3584 113.858 78.41 116.121C77.9171 116.265 77.4242 116.409 76.9312 116.43C76.0686 116.45 75.3498 116.059 75.0417 115.237C74.7336 114.414 74.939 113.653 75.5757 113.035C76.0686 112.562 76.6642 112.336 77.3009 112.171C82.7437 110.711 88.248 110.073 93.8961 110.526C108.602 111.678 121.829 116.738 133.823 125.254C138.136 128.319 141.607 132.187 144.811 136.363C145.037 136.651 145.243 136.959 145.407 137.288C146.413 139.284 145.674 140.95 143.497 141.382C141.587 141.752 139.636 141.999 137.684 142.225C129.428 143.171 121.171 143.069 112.915 142.308C105.275 141.608 97.8601 139.921 90.8359 136.856C81.5935 132.824 73.7888 126.982 68.1407 118.466C67.6683 117.746 67.2165 117.294 66.2512 117.355C62.2461 117.602 58.3643 118.446 54.5236 119.598C53.5994 119.885 53.5994 120.564 53.5378 121.284C53.1681 124.966 52.7778 128.649 52.3465 132.331C52.1617 133.997 51.8947 135.643 51.5866 137.288C51.4017 138.296 51.6482 138.708 52.7573 138.79C57.1731 139.099 61.5273 139.86 65.8404 140.909C67.6067 141.341 69.3319 141.876 70.9956 142.616C76.8696 145.27 80.0531 149.672 79.9299 156.254C79.8683 160.266 79.211 164.215 78.4716 168.144C77.2393 174.706 76.0686 181.289 74.0969 187.686C73.3986 189.908 72.6181 192.089 71.4063 194.104C69.3319 197.499 66.3538 199.638 62.3488 199.7C52.9216 199.844 43.4738 199.947 34.1082 198.465C32.383 198.198 30.7194 197.725 29.0968 197.026C25.8517 195.647 23.8595 193.241 23.1201 189.785C22.4218 186.432 22.0931 183.037 21.6207 179.664C20.409 170.962 19.2793 162.241 18.7453 153.457C18.6837 152.449 18.6221 151.42 18.6837 150.412C18.7659 149.096 19.4436 148.355 20.4706 148.376C21.477 148.376 22.1753 149.075 22.278 150.412C22.5861 154.547 23.0379 158.661 23.5719 162.775C24.681 171.209 25.7079 179.643 26.9608 188.036C27.4126 191.081 29.0557 192.87 31.9106 193.693C34.2931 194.392 36.7166 194.804 39.1813 195.01C46.1233 195.627 53.1064 195.503 60.069 195.647C60.3566 195.647 60.6441 195.647 60.9316 195.647C64.6491 195.73 67.0932 193.919 68.572 190.607C70.2973 186.74 71.3036 182.647 72.1868 178.512C73.5218 172.258 74.8568 166.005 75.5551 159.649C75.6784 158.558 75.7811 157.468 75.7811 156.398C75.8221 151.503 73.7272 148.314 69.2293 146.36C66.4771 145.167 63.5606 144.632 60.6441 144.015C57.7892 143.418 54.8933 143.213 52.0179 142.822C50.8472 142.657 50.5186 143.151 50.2926 144.159C50.0051 145.578 49.6149 146.977 49.1836 148.376C48.6085 150.186 47.6842 151.832 46.4109 153.272C44.624 155.329 42.4264 156.604 39.6536 156.83C37.0863 157.057 34.5601 156.851 32.1365 156.069C29.8773 155.329 27.9672 154.033 26.8376 151.832C25.2766 148.808 25.9133 145.558 28.5217 143.377C30.1032 142.061 31.9311 141.176 33.8618 140.538C37.7436 139.263 41.687 138.358 45.7947 138.379C46.7189 138.379 47.2735 138.193 47.4378 137.144C48.1772 132.269 48.8549 127.373 49.2246 122.436C49.2452 122.148 49.2041 121.86 49.163 121.511C48.2182 121.325 47.4583 121.819 46.6573 122.066C40.9065 123.876 35.0941 125.357 29.0352 125.83C23.4076 126.262 17.8827 125.666 12.3578 124.761C4.22454 123.403 -3.58014 121.058 -10.9946 117.376C-17.3821 114.208 -22.8864 109.888 -27.8362 104.787C-32.9504 99.5205 -37.6126 93.843 -41.8025 87.8158C-42.583 86.6844 -43.3634 85.5325 -43.7947 84.1954C-44.5752 81.8092 -43.5072 80.0812 -41.0015 79.9167C-30.4857 79.279 -19.9699 78.9704 -9.47472 80.1224C-1.79328 80.9658 5.68278 82.4469 12.8713 85.4502C24.2702 90.2226 33.4715 97.5252 40.0028 108.078C40.1877 108.386 40.4136 108.674 40.5779 109.004C41.1119 110.073 41.8513 110.402 43.0631 110.094C44.7472 109.682 46.4725 109.374 48.1977 109.148C49.3889 109.004 49.7586 108.448 49.7176 107.276C49.5327 102.935 48.6085 98.8006 46.5341 94.9333C44.3365 90.8809 41.4405 87.3427 38.524 83.8251C32.2187 76.1934 26.5911 68.1091 21.477 59.634C15.6851 50.0069 12.2141 39.6805 10.879 28.5312C9.99589 21.2286 9.2565 13.9465 9.21542 6.58225C9.21542 5.86228 9.1538 5.12173 9.40027 4.42233C9.95481 2.85896 11.4336 2.26241 12.8918 3.0441C13.2615 3.2498 13.6107 3.53779 13.9393 3.80521C24.3524 12.5889 32.1776 23.2445 37.2301 35.9366C40.1877 43.342 41.9745 51.0149 43.1452 58.8729C43.2684 59.7369 43.3095 60.6008 43.823 61.6088C44.4802 58.7495 45.0553 56.0753 45.7125 53.4217C49.3068 39.0633 55.3451 25.8981 64.9161 14.4814C69.4963 9.03016 74.8774 4.54575 81.08 1.04874C81.4497 0.843033 81.84 0.616756 82.2302 0.43162C84.2635 -0.473489 85.8244 0.12306 86.5638 2.22127C87.2621 4.15491 87.447 6.19141 87.7551 8.18676C89.7063 21.2697 87.8783 33.8178 82.2918 45.8105C79.5396 51.7349 75.8222 56.9804 71.2831 61.6705C68.1612 64.9207 64.8135 67.924 61.4862 70.9684C58.4465 73.7661 55.3657 76.5431 52.7984 79.8344C52.2644 80.5132 51.8125 81.2743 51.2785 81.9737C50.7856 82.6526 50.8267 83.2286 51.2785 83.9485C53.2913 87.137 55.2425 90.3666 57.2347 93.5962C57.3785 93.8225 57.4812 94.131 57.9125 94.1927C58.5081 93.9665 58.6929 93.2876 59.0216 92.7528C64.8956 83.1668 72.4127 75.062 81.1211 68.0063C90.1786 60.6625 100.633 56.3838 111.97 54.1416C119.015 52.7428 126.162 52.0023 133.289 51.1383C138.198 50.5418 143.045 49.6984 147.892 48.7933C148.385 48.6904 148.899 48.5464 149.391 48.5464C151.507 48.5464 152.534 50.2744 151.507 52.1257C151.117 52.8251 150.603 53.4422 150.131 54.0799C148.159 56.7747 146.393 59.634 144.729 62.5139C134.419 80.3898 119.302 92.4237 100.078 99.5411C87.5292 104.19 74.5693 107.337 61.5889 110.423C59.4734 110.917 57.3374 111.369 55.2219 111.863C54.0101 112.151 53.2502 113.776 53.7842 114.887C54.0307 115.422 54.5236 115.237 54.9344 115.154C56.2694 114.825 57.6044 114.455 58.9394 114.167C61.63 113.57 64.3821 113.344 67.1343 113.159C68.7363 113.035 69.907 113.591 70.7491 115.031C74.2407 121.099 79.3137 125.604 85.1467 129.307C92.7049 134.12 101.064 136.651 109.834 137.823C119.446 139.099 129.079 139.201 138.691 137.905C139.102 137.844 139.574 137.947 140.087 137.35L140.231 137.309ZM145.058 53.7919C144.483 53.5039 143.908 53.7097 143.374 53.8125C139.512 54.5325 135.631 54.9645 131.749 55.4787C124.93 56.3838 118.05 57.0421 111.313 58.5026C101.475 60.642 92.3557 64.427 84.4073 70.7216C75.6168 77.6745 68.1202 85.7999 62.3077 95.427C61.7121 96.4144 61.137 97.4429 60.4798 98.3891C58.8572 100.755 56.8855 100.734 55.3657 98.3274C55.0165 97.772 54.7085 97.196 54.3593 96.6406C52.0795 92.9379 49.8613 89.1735 47.4583 85.5325C46.2465 83.7017 46.2465 82.2206 47.4172 80.3692C49.7586 76.7077 52.6546 73.6015 55.7765 70.6599C59.4734 67.1629 63.2936 63.8099 66.8879 60.2306C80.6693 46.4688 85.9477 29.7448 83.8938 10.5318C83.6884 8.68046 83.6268 6.78796 82.9491 4.99831C82.107 4.99831 81.5524 5.53315 80.9568 5.90342C76.3561 8.76274 72.2895 12.2392 68.7363 16.3327C59.5145 26.9884 53.7226 39.3719 50.0873 52.8868C48.3004 59.49 47.3351 66.2578 46.2055 72.9844C46.0822 73.7866 45.9179 74.5683 45.5482 75.2883C45.1169 76.1317 44.4186 76.6048 43.4328 76.5225C42.5496 76.4608 41.954 75.9465 41.6664 75.1237C41.5227 74.7123 41.42 74.2803 41.3378 73.8689C40.9065 71.2976 40.4341 68.7262 40.0439 66.1343C39.0786 59.7369 38.257 53.3188 36.5523 47.0653C32.6705 32.8921 25.9544 20.3852 14.9457 10.429C14.5555 10.0793 14.2885 9.40043 13.4875 9.66785C13.4875 10.6758 13.4464 11.6838 13.4875 12.6917C13.8161 19.6652 14.6582 26.5975 15.8289 33.4681C16.9585 40.1124 19.0123 46.4276 22.2164 52.3726C25.5231 58.5232 29.1584 64.4681 33.184 70.1662C37.2712 75.926 41.8924 81.2332 46.1644 86.8284C49.7381 91.498 52.5108 96.5584 53.3734 102.483C53.5583 103.696 53.6199 104.931 53.7637 106.165C53.9691 107.872 53.9896 107.893 55.5916 107.543C57.2142 107.193 58.8367 106.803 60.4593 106.412C73.4397 103.326 86.4201 100.199 98.9486 95.5298C113.408 90.1197 125.731 81.7475 135.22 69.4256C138.896 64.6327 141.772 59.3049 144.976 54.2034C145.037 54.1005 144.996 53.9154 145.017 53.7714L145.058 53.7919ZM-39.0092 83.8457C-38.886 84.8742 -38.4136 85.3473 -38.0439 85.8616C-34.2032 91.3334 -29.9312 96.4761 -25.3511 101.331C-18.7582 108.325 -10.974 113.447 -1.93705 116.718C4.30669 118.98 10.7147 120.4 17.2666 121.243C23.2638 122.025 29.2611 122.004 35.2378 120.791C39.5099 119.927 43.6587 118.651 47.7869 117.314C49.656 116.718 49.656 116.718 49.697 114.763C49.697 114.229 49.923 113.611 49.3684 113.138C47.6637 113.426 45.959 113.714 44.2543 114.043C39.9617 114.825 39.3456 114.558 36.9426 110.834C36.6755 110.402 36.4085 109.97 36.121 109.559C33.718 106 31.1301 102.606 27.9466 99.6851C20.7992 93.0819 12.3373 88.9266 3.05384 86.4376C-5.03838 84.2777 -13.3771 83.7017 -21.7157 83.4343C-27.4255 83.2491 -33.1352 83.7223 -38.9887 83.8663L-39.0092 83.8457ZM37.8462 152.696C41.2762 153.107 43.3917 151.173 44.8294 148.191C45.425 146.936 45.7947 145.599 46.0822 144.262C46.4314 142.657 46.2876 142.472 44.6445 142.534C40.619 142.698 36.7782 143.645 33.1018 145.29C32.5062 145.558 31.9517 145.907 31.4382 146.298C29.7951 147.574 29.6924 149.302 31.1507 150.783C31.8901 151.523 32.7937 151.955 33.7796 152.243C35.053 152.593 36.3264 152.757 37.8052 152.696H37.8462Z" fill="white"/>
    </g>
    <defs>
        <clipPath id="clip0_7_5877">
            <rect width="196" height="310" fill="white" transform="translate(-44)"/>
        </clipPath>
    </defs>
</svg>
