<svg width="243" height="54" viewBox="0 0 243 54" fill="none" xmlns="http://www.w3.org/2000/svg">
<path d="M19.9386 3.07H30.3686L49.8986 52H39.0486L34.8486 41.36H15.4586L11.2586 52H0.338633L19.9386 3.07ZM32.0486 32.89L25.1186 14.27L18.1886 32.89H32.0486ZM65.3008 53.05C61.3808 53.05 58.3942 51.9767 56.3408 49.83C54.3342 47.6367 53.3308 44.6033 53.3308 40.73V26.03H48.4308V18.4H53.3308V8.32H63.9008V18.4H71.8108V26.03H63.9008V39.33C63.9008 41.29 64.2742 42.7133 65.0208 43.6C65.7675 44.44 67.0975 44.86 69.0108 44.86C70.5508 44.86 72.0208 44.4867 73.4208 43.74V51.65C71.2742 52.5833 68.5675 53.05 65.3008 53.05ZM78.3011 0.269998H88.8711V22.25C90.4578 20.6167 92.2545 19.4033 94.2611 18.61C96.2678 17.77 98.4145 17.35 100.701 17.35C105.274 17.35 108.681 18.5867 110.921 21.06C113.208 23.4867 114.351 26.7767 114.351 30.93V52H103.781V32.12C103.781 27.78 101.774 25.61 97.7611 25.61C95.9878 25.61 94.3311 26.0533 92.7911 26.94C91.2511 27.78 89.9445 29.04 88.8711 30.72V52H78.3011V0.269998ZM133.898 53.05C129.791 53.05 126.431 52.0233 123.818 49.97C121.251 47.87 119.968 45.0233 119.968 41.43C119.968 37.6967 121.204 34.8033 123.678 32.75C126.151 30.65 129.651 29.6 134.178 29.6C136.184 29.6 138.098 29.81 139.918 30.23C141.738 30.65 143.348 31.2333 144.748 31.98V31.14C144.748 29.04 144.001 27.5 142.508 26.52C141.014 25.54 138.728 25.05 135.648 25.05C131.541 25.05 127.761 25.82 124.308 27.36V19.66C125.801 19.0067 127.738 18.47 130.118 18.05C132.498 17.5833 134.878 17.35 137.258 17.35C143.324 17.35 147.851 18.61 150.838 21.13C153.824 23.6033 155.318 27.08 155.318 31.56V52H145.378V48.92C142.531 51.6733 138.704 53.05 133.898 53.05ZM136.768 46.05C138.494 46.05 140.058 45.7233 141.458 45.07C142.858 44.4167 143.954 43.5067 144.748 42.34V38.98C142.368 37.3933 139.754 36.6 136.908 36.6C134.948 36.6 133.431 37.02 132.358 37.86C131.331 38.6533 130.818 39.8433 130.818 41.43C130.818 42.9233 131.331 44.0667 132.358 44.86C133.384 45.6533 134.854 46.05 136.768 46.05ZM174.607 53.05C170.687 53.05 167.701 51.9767 165.647 49.83C163.641 47.6367 162.637 44.6033 162.637 40.73V26.03H157.737V18.4H162.637V8.32H173.207V18.4H181.117V26.03H173.207V39.33C173.207 41.29 173.581 42.7133 174.327 43.6C175.074 44.44 176.404 44.86 178.317 44.86C179.857 44.86 181.327 44.4867 182.727 43.74V51.65C180.581 52.5833 177.874 53.05 174.607 53.05ZM187.608 0.269998H198.178V22.25C199.764 20.6167 201.561 19.4033 203.568 18.61C205.574 17.77 207.721 17.35 210.008 17.35C214.581 17.35 217.988 18.5867 220.228 21.06C222.514 23.4867 223.658 26.7767 223.658 30.93V52H213.088V32.12C213.088 27.78 211.081 25.61 207.068 25.61C205.294 25.61 203.638 26.0533 202.098 26.94C200.558 27.78 199.251 29.04 198.178 30.72V52H187.608V0.269998ZM236.484 13.22C234.851 13.22 233.474 12.6833 232.354 11.61C231.234 10.5367 230.674 9.18333 230.674 7.55C230.674 5.96333 231.234 4.63333 232.354 3.56C233.474 2.44 234.851 1.88 236.484 1.88C238.118 1.88 239.494 2.44 240.614 3.56C241.734 4.63333 242.294 5.96333 242.294 7.55C242.294 9.18333 241.734 10.5367 240.614 11.61C239.494 12.6833 238.118 13.22 236.484 13.22ZM231.164 18.4H241.804V52H231.164V18.4Z" fill="white"/>
</svg>
