<svg width="83" height="20" viewBox="0 0 83 20" fill="none" xmlns="http://www.w3.org/2000/svg">
<path d="M6.72 1.91215H10.296L16.992 18.6881H13.272L11.832 15.0401H5.184L3.744 18.6881H0L6.72 1.91215ZM10.872 12.1361L8.496 5.75215L6.12 12.1361H10.872Z" fill="#95622D"/>
<path d="M22.2728 19.0481C20.9288 19.0481 19.9048 18.6801 19.2008 17.9441C18.5128 17.1921 18.1688 16.1521 18.1688 14.8241V9.78415H16.4888V7.16815H18.1688V3.71215H21.7927V7.16815H24.5048V9.78415H21.7927V14.3441C21.7927 15.0161 21.9207 15.5041 22.1768 15.8081C22.4328 16.0961 22.8888 16.2401 23.5448 16.2401C24.0728 16.2401 24.5768 16.1121 25.0568 15.8561V18.5681C24.3208 18.8881 23.3927 19.0481 22.2728 19.0481Z" fill="#95622D"/>
<path d="M26.73 0.952148H30.354V8.48815C30.898 7.92815 31.514 7.51215 32.202 7.24015C32.89 6.95215 33.626 6.80815 34.41 6.80815C35.978 6.80815 37.146 7.23215 37.914 8.08015C38.698 8.91215 39.09 10.0401 39.09 11.4641V18.6881H35.466V11.8721C35.466 10.3841 34.778 9.64015 33.402 9.64015C32.794 9.64015 32.226 9.79215 31.698 10.0961C31.17 10.3841 30.722 10.8161 30.354 11.3921V18.6881H26.73V0.952148Z" fill="#95622D"/>
<path d="M45.7916 19.0481C44.3836 19.0481 43.2316 18.6961 42.3356 17.9921C41.4556 17.2722 41.0156 16.2961 41.0156 15.0641C41.0156 13.7841 41.4396 12.7921 42.2876 12.0881C43.1356 11.3681 44.3356 11.0081 45.8876 11.0081C46.5756 11.0081 47.2316 11.0801 47.8556 11.2241C48.4796 11.3681 49.0316 11.5681 49.5116 11.8241V11.5361C49.5116 10.8161 49.2556 10.2881 48.7436 9.95215C48.2316 9.61615 47.4476 9.44815 46.3916 9.44815C44.9836 9.44815 43.6876 9.71215 42.5036 10.2401V7.60015C43.0156 7.37615 43.6796 7.19215 44.4956 7.04815C45.3116 6.88815 46.1276 6.80815 46.9436 6.80815C49.0236 6.80815 50.5756 7.24015 51.5996 8.10415C52.6236 8.95215 53.1356 10.1441 53.1356 11.6801V18.6881H49.7276V17.6321C48.7516 18.5761 47.4396 19.0481 45.7916 19.0481ZM46.7756 16.6481C47.3676 16.6481 47.9036 16.5361 48.3836 16.3121C48.8636 16.0881 49.2396 15.7761 49.5116 15.3761V14.2241C48.6956 13.6801 47.7996 13.4081 46.8236 13.4081C46.1516 13.4081 45.6316 13.5521 45.2636 13.8401C44.9116 14.1121 44.7356 14.5201 44.7356 15.0641C44.7356 15.5761 44.9116 15.9681 45.2636 16.2401C45.6156 16.5121 46.1196 16.6481 46.7756 16.6481Z" fill="#95622D"/>
<path d="M59.7493 19.0481C58.4053 19.0481 57.3813 18.6801 56.6773 17.9441C55.9893 17.1921 55.6453 16.1521 55.6453 14.8241V9.78415H53.9653V7.16815H55.6453V3.71215H59.2693V7.16815H61.9813V9.78415H59.2693V14.3441C59.2693 15.0161 59.3973 15.5041 59.6533 15.8081C59.9093 16.0961 60.3653 16.2401 61.0213 16.2401C61.5493 16.2401 62.0533 16.1121 62.5333 15.8561V18.5681C61.7973 18.8881 60.8693 19.0481 59.7493 19.0481Z" fill="#95622D"/>
<path d="M64.2066 0.952148H67.8306V8.48815C68.3746 7.92815 68.9906 7.51215 69.6786 7.24015C70.3666 6.95215 71.1026 6.80815 71.8866 6.80815C73.4546 6.80815 74.6226 7.23215 75.3906 8.08015C76.1746 8.91215 76.5666 10.0401 76.5666 11.4641V18.6881H72.9426V11.8721C72.9426 10.3841 72.2546 9.64015 70.8786 9.64015C70.2706 9.64015 69.7026 9.79215 69.1746 10.0961C68.6466 10.3841 68.1986 10.8161 67.8306 11.3921V18.6881H64.2066V0.952148Z" fill="#95622D"/>
<path d="M80.9642 5.39215C80.4042 5.39215 79.9322 5.20815 79.5482 4.84015C79.1642 4.47215 78.9722 4.00815 78.9722 3.44815C78.9722 2.90415 79.1642 2.44815 79.5482 2.08015C79.9322 1.69615 80.4042 1.50415 80.9642 1.50415C81.5242 1.50415 81.9962 1.69615 82.3802 2.08015C82.7642 2.44815 82.9562 2.90415 82.9562 3.44815C82.9562 4.00815 82.7642 4.47215 82.3802 4.84015C81.9962 5.20815 81.5242 5.39215 80.9642 5.39215ZM79.1402 7.16815H82.7882V18.6881H79.1402V7.16815Z" fill="#95622D"/>
</svg>
