<svg width="24" height="24" viewBox="0 0 24 24" fill="none" xmlns="http://www.w3.org/2000/svg">
<path fill-rule="evenodd" clip-rule="evenodd" d="M12.0001 7.76912C10.7692 7.76912 9.77142 8.75411 9.77142 9.96912C9.77142 11.1841 10.7692 12.1691 12.0001 12.1691C13.2309 12.1691 14.2286 11.1841 14.2286 9.96912C14.2286 8.75411 13.2309 7.76912 12.0001 7.76912ZM8.05713 9.96912C8.05713 7.81948 9.82244 6.07681 12.0001 6.07681C14.1776 6.07681 15.9429 7.81948 15.9429 9.96912C15.9429 12.1188 14.1776 13.8614 12.0001 13.8614C9.82244 13.8614 8.05713 12.1188 8.05713 9.96912Z" fill="#262A2B"/>
<path fill-rule="evenodd" clip-rule="evenodd" d="M12 2.69225C7.38593 2.69225 3.71429 6.21793 3.71429 10.4769C3.71429 13.2183 5.303 15.9405 7.25277 18.0261C8.21736 19.0579 9.2399 19.9002 10.1343 20.4779C10.5818 20.767 10.9849 20.9819 11.3223 21.1218C11.6739 21.2676 11.8962 21.3076 12 21.3076C12.0897 21.3076 12.3031 21.2682 12.6561 21.1104C12.9925 20.9598 13.396 20.729 13.8452 20.4202C14.7428 19.8032 15.7696 18.9121 16.739 17.8447C18.7068 15.6778 20.2858 12.9563 20.2858 10.4769C20.2858 6.21793 16.6141 2.69225 12 2.69225ZM2 10.4769C2 5.21371 6.51123 0.999939 12 0.999939C17.4888 0.999939 22 5.21371 22 10.4769C22 13.582 20.0818 16.699 18.0154 18.9744C16.9676 20.1282 15.8429 21.1092 14.8249 21.809C14.3162 22.1586 13.8207 22.4474 13.3635 22.6519C12.9227 22.849 12.4475 22.9999 12 22.9999C11.5667 22.9999 11.1005 22.8654 10.6583 22.682C10.2019 22.4927 9.70605 22.2237 9.19567 21.894C8.17444 21.2343 7.04548 20.2996 5.99297 19.1738C3.9084 16.944 2 13.8277 2 10.4769Z" fill="#262A2B"/>
</svg>
