<svg width="24" height="24" viewBox="0 0 24 24" fill="none" xmlns="http://www.w3.org/2000/svg">
<g clip-path="url(#clip0_161_2465)">
<path fill-rule="evenodd" clip-rule="evenodd" d="M20.0351 20.035C21.5027 18.5676 22.1998 16.1121 22.1998 11.9999C22.1998 7.88765 21.5027 5.43227 20.0351 3.96472C18.5675 2.49716 16.1121 1.79999 11.9999 1.79999C7.88765 1.79999 5.43227 2.49716 3.96472 3.96472C2.49717 5.43227 1.79999 7.88765 1.79999 11.9999C1.79999 16.1121 2.49717 18.5676 3.96472 20.035C5.43227 21.5026 7.88765 22.1998 11.9999 22.1998C16.1121 22.1998 18.5675 21.5026 20.0351 20.035ZM21.3078 21.3079C19.3066 23.3092 16.2119 23.9998 11.9999 23.9998C7.78783 23.9998 4.69326 23.3092 2.69194 21.3079C0.690618 19.3065 0 16.212 0 11.9999C0 7.78782 0.690618 4.69324 2.69194 2.69194C4.69326 0.690618 7.78783 0 11.9999 0C16.2119 0 19.3066 0.690618 21.3078 2.69194C23.3092 4.69324 23.9998 7.78782 23.9998 11.9999C23.9998 16.212 23.3092 19.3065 21.3078 21.3079Z" fill="#262A2B"/>
<path fill-rule="evenodd" clip-rule="evenodd" d="M11.9996 17.574C11.5026 17.574 11.0996 17.171 11.0996 16.674V12C11.0996 11.503 11.5026 11.1 11.9996 11.1C12.4968 11.1 12.8996 11.503 12.8996 12V16.674C12.8996 17.171 12.4968 17.574 11.9996 17.574Z" fill="#262A2B"/>
<path fill-rule="evenodd" clip-rule="evenodd" d="M12.905 7.80003C12.905 8.29708 12.5022 8.70002 12.005 8.70002H11.9942C11.4972 8.70002 11.0942 8.29708 11.0942 7.80003C11.0942 7.30298 11.4972 6.90004 11.9942 6.90004H12.005C12.5022 6.90004 12.905 7.30298 12.905 7.80003Z" fill="#262A2B"/>
</g>
<defs>
<clipPath id="clip0_161_2465">
<rect width="24" height="24" fill="white"/>
</clipPath>
</defs>
</svg>
