<svg width="250" height="250" viewBox="0 0 250 250" fill="none" xmlns="http://www.w3.org/2000/svg">
<path d="M208.333 46.3828H145.833C143.358 46.3828 141.271 44.2962 141.271 41.8203C141.271 39.3444 143.358 37.2578 145.833 37.2578H208.333C210.809 37.2578 212.896 39.3444 212.896 41.8203C212.896 44.2962 210.809 46.3828 208.333 46.3828Z" fill="#7A8183" stroke="white" stroke-width="6.5"/>
<path d="M177.083 67.5225H145.833C143.358 67.5225 141.271 65.4359 141.271 62.96C141.271 60.4841 143.358 58.3975 145.833 58.3975H177.083C179.559 58.3975 181.646 60.4841 181.646 62.96C181.646 65.4359 179.559 67.5225 177.083 67.5225Z" fill="#7A8183" stroke="white" stroke-width="6.5"/>
<path d="M229.167 236.979C227.188 236.979 225.208 236.25 223.646 234.687L202.813 213.854C199.792 210.833 199.792 205.833 202.813 202.812C205.833 199.791 210.833 199.791 213.854 202.812L234.688 223.645C237.708 226.666 237.708 231.666 234.688 234.687C233.125 236.25 231.146 236.979 229.167 236.979Z" fill="#7A8183"/>
<path d="M119.792 223.312C62.7326 223.312 16.271 176.851 16.271 119.791C16.271 62.7321 62.7326 16.2705 119.792 16.2705C122.268 16.2705 124.354 18.3571 124.354 20.833C124.354 23.3089 122.268 25.3955 119.792 25.3955C67.682 25.3955 25.396 67.7905 25.396 119.791C25.396 171.792 67.682 214.187 119.792 214.187C171.902 214.187 214.188 171.792 214.188 119.791C214.188 117.315 216.274 115.229 218.75 115.229C221.226 115.229 223.313 117.315 223.313 119.791C223.313 176.851 176.851 223.312 119.792 223.312Z" fill="#95622D" stroke="white" stroke-width="6.5"/>
<path d="M175.53 104.153C173.025 102.295 163.512 97.3226 146.264 111.575C141.98 115.597 138.49 119.14 135.423 122.264C135.382 122.305 135.342 122.346 135.302 122.387H134.477C130.937 118.589 128.041 110.003 124.973 100.916C120.609 87.9503 116.083 74.5453 108.49 70.1247C108.45 70.1042 108.4 70.0736 108.359 70.0634C98.2824 66.2349 76.2074 65.3467 71.36 71.1967C67.8501 75.4336 71.7924 101.355 75.7348 122.397C75.6945 123.438 75.7649 124.469 75.956 125.48C75.9761 125.582 75.9862 125.684 76.0164 125.776C76.1069 126.215 76.2175 126.644 76.3583 127.063C76.3885 127.165 76.4287 127.267 76.4589 127.369C76.6097 127.808 76.7706 128.237 76.9718 128.645C77.0522 128.808 77.1528 128.962 77.2332 129.115C79.3553 133.178 83.1769 136.384 88.3663 138.467L76.7203 181.816C76.6499 182.102 76.7002 182.398 76.8813 182.632C77.0522 182.867 77.3238 183 77.6154 183H80.1598C80.5319 183 80.8739 182.775 81.0147 182.418L97.6991 141.029C101.843 141.805 105.976 142.244 109.224 142.52C109.305 142.52 109.385 142.53 109.456 142.54C109.818 142.571 110.18 142.601 110.552 142.622C110.763 142.632 110.984 142.652 111.206 142.663C111.467 142.683 111.718 142.693 111.98 142.714C112.231 142.724 112.483 142.744 112.734 142.754C112.976 142.765 113.227 142.775 113.468 142.785C113.75 142.795 114.042 142.806 114.343 142.816C114.464 142.816 114.585 142.816 114.705 142.826L112.07 181.999C112.05 182.255 112.141 182.51 112.312 182.704C112.483 182.898 112.734 183 112.986 183H115.53C115.962 183 116.345 182.684 116.435 182.255L124.35 143C125.084 143.01 125.828 143.04 126.552 143.04C129.489 143.04 132.305 142.918 135.04 142.714C136.831 142.642 138.017 142.571 138.792 142.458C139.194 142.418 139.496 142.367 139.707 142.295C141.507 142.081 143.347 141.785 145.218 141.427L161.742 182.418C161.882 182.765 162.214 183 162.596 183H165.141C165.433 183 165.694 182.867 165.875 182.632C166.046 182.398 166.106 182.102 166.036 181.816L154.541 139.048C159.308 137.517 163.361 135.618 166.73 133.464C171.889 130.248 176.063 126.134 178.285 121.039C178.456 120.661 178.617 120.284 178.768 119.906C181.222 113.617 179.945 107.43 175.52 104.142L175.53 104.153ZM163.23 181.132L147.069 141.05C147.662 140.927 148.245 140.753 148.839 140.61C149.683 140.417 150.518 140.212 151.323 139.998C151.825 139.865 152.308 139.722 152.791 139.59L163.954 181.132H163.23ZM113.991 181.132L116.566 142.887C116.988 142.887 117.421 142.908 117.843 142.908C117.934 142.908 118.024 142.908 118.125 142.908C119.221 142.928 120.367 142.938 121.574 142.938C121.614 142.938 121.645 142.938 121.685 142.938C121.956 142.948 122.228 142.938 122.499 142.948L114.806 181.121H113.991V181.132ZM78.8122 181.132L90.1061 139.11C91.9365 139.722 93.8775 140.233 95.8587 140.662L79.5463 181.132H78.8222H78.8122ZM88.2054 68.8689C95.0742 68.8689 102.647 69.9103 107.635 71.7888C114.595 75.9032 119.181 89.5124 123.234 101.529C126.07 109.952 128.775 117.956 132.104 122.428H105.031C101.39 119.232 96.4822 114.964 91.1822 113.055C86.9281 111.524 82.6036 111.963 79.6268 114.25C78.3496 115.23 77.4143 116.496 76.7706 117.895C72.1545 92.2893 70.6057 75.0048 72.768 72.4014C74.7794 69.9715 81.1253 68.8689 88.2054 68.8689ZM134.729 124.286H150.438C152.137 124.286 153.746 125.133 154.742 126.542C155.667 127.849 155.919 129.441 155.426 130.912C154.983 132.239 154.279 133.443 153.324 134.515C153.093 134.781 152.841 135.036 152.58 135.281C152.338 135.516 152.077 135.741 151.805 135.955C151.252 136.404 150.639 136.823 149.975 137.211C148.869 137.854 147.602 138.415 146.204 138.895C145.912 138.997 145.63 139.089 145.329 139.181C145.037 139.273 144.735 139.345 144.434 139.436C143.579 139.671 142.674 139.875 141.728 140.049C140.974 140.192 140.2 140.325 139.395 140.427C139.375 140.427 139.355 140.427 139.345 140.427C139.234 140.417 139.144 140.396 139.033 140.386C136.589 140.11 134.226 139.712 132.013 139.202C131.883 139.171 131.752 139.13 131.611 139.1C131.37 139.038 131.138 138.977 130.897 138.906L130.263 138.732C127.468 137.976 125.014 137.078 122.781 136.026C122.459 135.873 122.137 135.72 121.816 135.557C121.695 135.496 121.564 135.434 121.444 135.373C121.242 135.261 121.061 135.159 120.86 135.046C120.488 134.842 120.126 134.628 119.764 134.424C119.643 134.352 119.523 134.281 119.402 134.209C119.06 134.005 118.728 133.801 118.416 133.586C114.836 131.187 111.558 128.216 108.38 125.347C107.977 124.99 107.575 124.623 107.173 124.265H134.709L134.729 124.286ZM161.45 134.352C159.227 135.445 156.773 136.435 154.078 137.303C153.787 137.395 153.485 137.476 153.193 137.568C152.962 137.64 152.721 137.711 152.489 137.782C152.7 137.619 152.922 137.466 153.123 137.303C153.394 137.078 153.646 136.853 153.887 136.619C155.426 135.159 156.532 133.454 157.166 131.524C157.85 129.472 157.508 127.267 156.23 125.47C154.893 123.571 152.721 122.438 150.428 122.438H137.856C140.632 119.62 143.76 116.475 147.461 113.004C160.314 102.376 169.827 102.254 174.433 105.674C178.165 108.451 179.19 113.77 177.058 119.252C174.926 124.725 169.858 130.248 161.44 134.373L161.45 134.352ZM96.5627 138.906C94.501 138.477 92.4795 137.956 90.5888 137.313C90.3676 137.241 90.1262 137.17 89.915 137.088C89.8547 137.068 89.7843 137.037 89.7139 137.007C89.4323 136.904 89.1406 136.782 88.849 136.67C85.2386 135.189 80.8839 132.535 78.6211 127.828C78.4401 127.461 78.2993 127.073 78.1585 126.675C78.1384 126.613 78.1183 126.562 78.0981 126.501C77.9674 126.093 77.8568 125.664 77.7763 125.235C77.5752 124.235 77.5048 123.203 77.5651 122.172C77.726 119.691 78.7116 117.272 80.7331 115.72C82.3321 114.495 84.2832 114.025 86.194 114.025C87.7528 114.025 89.2814 114.342 90.5687 114.801C95.6475 116.629 100.505 120.906 104.055 124.02C105.071 124.919 106.077 125.827 107.082 126.736C110.3 129.646 113.629 132.657 117.32 135.128C117.843 135.485 118.386 135.822 118.949 136.149C119.271 136.333 119.593 136.517 119.925 136.7C120.237 136.874 120.558 137.037 120.88 137.201C123.938 138.773 127.397 140.029 131.209 140.937C129.409 140.988 127.417 141.029 125.356 141.05C125.104 141.05 124.863 141.05 124.611 141.05C123.676 141.05 122.731 141.06 121.785 141.06C119.462 141.06 117.129 141.029 114.937 140.958C112.935 140.896 111.045 140.794 109.385 140.651C109.224 140.641 109.053 140.621 108.892 140.61C108.339 140.559 107.786 140.508 107.183 140.457C104.518 140.192 101.47 139.814 98.4131 139.263C98.1014 139.212 97.7997 139.161 97.4879 139.1C97.1761 139.038 96.8744 138.967 96.5727 138.906H96.5627Z" fill="#7A8183"/>
</svg>
