<svg width="24" height="24" viewBox="0 0 24 24" fill="none" xmlns="http://www.w3.org/2000/svg">
<path d="M19.9287 1.62015H7.2732C5.9259 1.62015 4.82985 2.7195 4.82985 4.07085V4.82962H4.06298C2.71568 4.82962 1.61963 5.92897 1.61963 7.28107V19.9293C1.61963 21.2806 2.71568 22.38 4.06298 22.38H16.7189C18.0705 22.38 19.1699 21.2806 19.1699 19.9293V19.1705H19.9287C21.2804 19.1705 22.3802 18.0712 22.3802 16.7191V4.07077C22.3801 2.7195 21.2804 1.62015 19.9287 1.62015ZM17.6699 19.9292C17.6699 20.4536 17.2433 20.8799 16.7189 20.8799H4.06298C3.54293 20.8799 3.11963 20.4536 3.11963 19.9292V7.281C3.11963 6.7566 3.543 6.32955 4.06298 6.32955H5.57985H16.7189C17.2433 6.32955 17.6699 6.75652 17.6699 7.281V18.4204V19.9292ZM20.8801 16.719C20.8801 17.2434 20.4535 17.6704 19.9286 17.6704H19.1699V7.281C19.1699 5.92897 18.0705 4.82955 16.7188 4.82955H6.32978V4.07077C6.32978 3.54637 6.75315 3.12007 7.27313 3.12007H19.9286C20.4534 3.12007 20.8801 3.54637 20.8801 4.07077V16.719Z" fill="#262A2B"/>
</svg>
