<svg width="25" height="24" viewBox="0 0 25 24" fill="none" xmlns="http://www.w3.org/2000/svg">
<path d="M13.7073 10.7321H16.9643C17.4506 10.7321 17.8452 10.3474 17.8452 9.87342C17.8452 9.39942 17.4506 9.01475 16.9643 9.01475H13.7073C13.2199 9.01475 12.8264 9.39942 12.8264 9.87342C12.8264 10.3474 13.2199 10.7321 13.7073 10.7321Z" fill="#EEE2CA"/>
<path fill-rule="evenodd" clip-rule="evenodd" d="M12.8989 18.6432C13.1914 18.6512 13.4909 18.6558 13.7986 18.6558C16.1042 18.6558 18.7516 18.3914 20.5874 17.0004C22.6077 15.4697 23.9643 11.8795 23.6107 8.99558C23.3758 7.07568 22.3939 5.64462 20.847 4.96573C19.7277 4.47344 18.5191 4.51122 17.4549 4.54671L17.4444 4.54706C17.2389 4.55381 17.0358 4.56049 16.8348 4.56274C15.5686 4.57877 14.3013 4.61655 13.034 4.66005C10.6555 4.74232 8.27821 4.85195 5.89973 4.96165L5.88576 4.96229L5.83408 4.96458C5.83525 4.79056 5.83408 4.61884 5.83055 4.45055C5.89398 2.10132 3.79625 1.17285 2.67808 1.01028C2.20357 0.937014 1.74902 1.2633 1.6762 1.73268C1.60573 2.20207 1.93695 2.63825 2.41851 2.70809C2.48781 2.71839 4.10867 2.9714 4.06874 4.44826C4.0934 5.44198 4.00649 6.56279 3.9137 7.74885L3.91356 7.75077C3.64462 11.2077 3.33984 15.1255 5.99499 16.9683C7.98818 18.3524 10.7319 18.5906 12.8989 18.6432ZM5.67996 7.76265C5.70858 7.39761 5.73673 7.03833 5.76008 6.68757L5.97032 6.67842C8.34525 6.56851 10.7213 6.4586 13.0962 6.37618C14.3495 6.33267 15.605 6.29604 16.8571 6.28001C17.0686 6.27664 17.2824 6.26999 17.4984 6.26327L17.5125 6.26284L17.534 6.2622C18.4834 6.23379 19.3821 6.2069 20.1235 6.53188C21.1136 6.96577 21.6974 7.86333 21.8618 9.19822C22.139 11.4719 21.0396 14.484 19.5069 15.6437C17.8484 16.9008 14.9696 16.9798 12.9435 16.9271C11.0267 16.8802 8.62244 16.6832 7.01801 15.5705C5.17163 14.2882 5.42534 11.03 5.67081 7.87936L5.67996 7.76265Z" fill="#EEE2CA"/>
<path d="M5.448 21.5174C5.448 22.3348 6.13041 23 6.9702 23C7.80883 23 8.49006 22.3348 8.49006 21.5174C8.49006 20.7011 7.80883 20.036 6.9702 20.036C6.13041 20.036 5.448 20.7011 5.448 21.5174Z" fill="#EEE2CA"/>
<path d="M17.5836 21.5174C17.5836 22.3348 18.266 23 19.1046 23C19.9433 23 20.6257 22.3348 20.6257 21.5174C20.6257 20.7011 19.9433 20.036 19.1046 20.036C18.266 20.036 17.5836 20.7011 17.5836 21.5174Z" fill="#EEE2CA"/>
</svg>
