<svg width="24" height="24" viewBox="0 0 24 24" fill="none" xmlns="http://www.w3.org/2000/svg">
<g clip-path="url(#clip0_163_2569)">
<path fill-rule="evenodd" clip-rule="evenodd" d="M8.2207 9.62031C8.2207 7.62028 9.83849 6 11.8355 6C13.8324 6 15.4502 7.62028 15.4502 9.62031C15.4502 11.6204 13.8324 13.2406 11.8355 13.2406C9.83849 13.2406 8.2207 11.6204 8.2207 9.62031ZM11.8355 7.8471C10.857 7.8471 10.065 8.64039 10.065 9.62031C10.065 10.6002 10.857 11.3935 11.8355 11.3935C12.8139 11.3935 13.606 10.6002 13.606 9.62031C13.606 8.64039 12.8139 7.8471 11.8355 7.8471Z" fill="#262A2B"/>
<path fill-rule="evenodd" clip-rule="evenodd" d="M13.8866 17.2659C12.8843 15.7678 10.6427 15.8131 9.71575 17.3808C9.45622 17.8197 8.89062 17.9648 8.45243 17.7049C8.01423 17.445 7.86934 16.8785 8.12879 16.4397C9.78848 13.6327 13.8386 13.6208 15.5262 16.4065C15.6137 16.5509 15.66 16.7167 15.66 16.8856V16.9102C15.66 17.4203 15.2471 17.8338 14.7378 17.8338C14.3544 17.8338 14.0256 17.5994 13.8866 17.2659Z" fill="#262A2B"/>
<path fill-rule="evenodd" clip-rule="evenodd" d="M20.0351 20.035C21.5027 18.5676 22.1998 16.1121 22.1998 11.9999C22.1998 7.88765 21.5027 5.43227 20.0351 3.96472C18.5675 2.49716 16.1121 1.79999 11.9999 1.79999C7.88765 1.79999 5.43227 2.49716 3.96472 3.96472C2.49717 5.43227 1.79999 7.88765 1.79999 11.9999C1.79999 16.1121 2.49717 18.5676 3.96472 20.035C5.43227 21.5026 7.88765 22.1998 11.9999 22.1998C16.1121 22.1998 18.5675 21.5026 20.0351 20.035ZM21.3078 21.3079C19.3066 23.3092 16.2119 23.9998 11.9999 23.9998C7.78783 23.9998 4.69326 23.3092 2.69194 21.3079C0.690618 19.3065 0 16.212 0 11.9999C0 7.78782 0.690618 4.69324 2.69194 2.69194C4.69326 0.690618 7.78783 0 11.9999 0C16.2119 0 19.3066 0.690618 21.3078 2.69194C23.3092 4.69324 23.9998 7.78782 23.9998 11.9999C23.9998 16.212 23.3092 19.3065 21.3078 21.3079Z" fill="#262A2B"/>
</g>
<defs>
<clipPath id="clip0_163_2569">
<rect width="24" height="24" fill="white"/>
</clipPath>
</defs>
</svg>
