<svg width="25" height="24" viewBox="0 0 25 24" fill="none" xmlns="http://www.w3.org/2000/svg">
<path fill-rule="evenodd" clip-rule="evenodd" d="M7.92808 2.02374C7.57996 1.99999 7.15591 1.99999 6.64797 2H6.59023C6.08228 1.99999 5.65823 1.99999 5.31011 2.02374C4.94771 2.04847 4.60539 2.10177 4.27351 2.23923C3.50342 2.55822 2.89159 3.17005 2.57261 3.94014C2.43515 4.27201 2.38184 4.61433 2.35711 4.97673C2.33336 5.32486 2.33336 5.74889 2.33337 6.25685V6.31457C2.33336 6.82253 2.33336 7.24658 2.35711 7.59471C2.38184 7.95711 2.43515 8.29942 2.57261 8.63129C2.89159 9.40138 3.50342 10.0133 4.27351 10.3322C4.60539 10.4697 4.94771 10.523 5.31011 10.5477C5.65823 10.5714 6.08227 10.5714 6.59022 10.5714H6.64796C7.15591 10.5714 7.57995 10.5714 7.92808 10.5477C8.29048 10.523 8.63279 10.4697 8.96467 10.3322C9.73476 10.0133 10.3466 9.40138 10.6656 8.63129C10.8031 8.29942 10.8563 7.95711 10.881 7.59471C10.9048 7.24657 10.9048 6.82254 10.9048 6.31458V6.25685C10.9048 5.74889 10.9048 5.32486 10.881 4.97673C10.8563 4.61433 10.8031 4.27201 10.6656 3.94014C10.3466 3.17005 9.73476 2.55822 8.96467 2.23923C8.63279 2.10177 8.29048 2.04847 7.92808 2.02374ZM4.92955 3.82303C5.01772 3.7865 5.15168 3.75282 5.42679 3.73405C5.70961 3.71476 6.07486 3.71429 6.61909 3.71429C7.16332 3.71429 7.52857 3.71476 7.81139 3.73405C8.08651 3.75282 8.22046 3.7865 8.30864 3.82303C8.65868 3.96802 8.93678 4.24613 9.08178 4.59617C9.1183 4.68434 9.15199 4.81831 9.17076 5.09342C9.19005 5.37624 9.19052 5.74149 9.19052 6.28572C9.19052 6.82994 9.19005 7.1952 9.17076 7.47801C9.15199 7.75313 9.1183 7.88709 9.08178 7.97527C8.93678 8.3253 8.65868 8.60341 8.30864 8.7484C8.22046 8.78493 8.08651 8.81862 7.81139 8.83738C7.52857 8.85668 7.16332 8.85714 6.61909 8.85714C6.07486 8.85714 5.70961 8.85668 5.42679 8.83738C5.15168 8.81862 5.01772 8.78493 4.92955 8.7484C4.5795 8.60341 4.3014 8.3253 4.1564 7.97527C4.11988 7.88709 4.0862 7.75313 4.06742 7.47801C4.04813 7.1952 4.04766 6.82994 4.04766 6.28572C4.04766 5.74149 4.04813 5.37624 4.06742 5.09342C4.0862 4.81831 4.11988 4.68434 4.1564 4.59617C4.3014 4.24613 4.5795 3.96802 4.92955 3.82303Z" fill="#EEE2CA"/>
<path fill-rule="evenodd" clip-rule="evenodd" d="M19.3567 2.02374C19.0086 1.99999 18.5845 1.99999 18.0766 2H18.0189C17.5109 1.99999 17.0868 1.99999 16.7386 2.02374C16.3762 2.04847 16.034 2.10177 15.7021 2.23923C14.932 2.55822 14.3201 3.17005 14.0012 3.94014C13.8637 4.27201 13.8104 4.61433 13.7857 4.97673C13.762 5.32486 13.762 5.74889 13.762 6.25685V6.31458C13.762 6.82254 13.762 7.24657 13.7857 7.59471C13.8104 7.95711 13.8637 8.29942 14.0012 8.63129C14.3201 9.40138 14.932 10.0133 15.7021 10.3322C16.034 10.4697 16.3762 10.523 16.7386 10.5477C17.0868 10.5714 17.5109 10.5714 18.0188 10.5714H18.0766C18.5845 10.5714 19.0086 10.5714 19.3567 10.5477C19.7191 10.523 20.0614 10.4697 20.3933 10.3322C21.1633 10.0133 21.7752 9.40138 22.0942 8.63129C22.2317 8.29942 22.2849 7.95711 22.3096 7.59471C22.3334 7.24657 22.3334 6.82254 22.3334 6.31458V6.25685C22.3334 5.74889 22.3334 5.32486 22.3096 4.97673C22.2849 4.61433 22.2317 4.27201 22.0942 3.94014C21.7752 3.17005 21.1633 2.55822 20.3933 2.23923C20.0614 2.10177 19.7191 2.04847 19.3567 2.02374ZM16.3581 3.82303C16.4463 3.7865 16.5802 3.75282 16.8553 3.73405C17.1382 3.71476 17.5034 3.71429 18.0477 3.71429C18.5919 3.71429 18.9572 3.71476 19.24 3.73405C19.5151 3.75282 19.649 3.7865 19.7373 3.82303C20.0872 3.96802 20.3654 4.24613 20.5104 4.59617C20.5469 4.68434 20.5806 4.81831 20.5993 5.09342C20.6186 5.37624 20.6191 5.74149 20.6191 6.28572C20.6191 6.82994 20.6186 7.1952 20.5993 7.47801C20.5806 7.75313 20.5469 7.88709 20.5104 7.97527C20.3654 8.3253 20.0872 8.60341 19.7373 8.7484C19.649 8.78493 19.5151 8.81862 19.24 8.83738C18.9572 8.85668 18.5919 8.85714 18.0477 8.85714C17.5034 8.85714 17.1382 8.85668 16.8553 8.83738C16.5802 8.81862 16.4463 8.78493 16.3581 8.7484C16.0081 8.60341 15.73 8.3253 15.585 7.97527C15.5485 7.88709 15.5148 7.75313 15.496 7.47801C15.4767 7.1952 15.4762 6.82994 15.4762 6.28572C15.4762 5.74149 15.4767 5.37624 15.496 5.09342C15.5148 4.81831 15.5485 4.68434 15.585 4.59617C15.73 4.24613 16.0081 3.96802 16.3581 3.82303Z" fill="#EEE2CA"/>
<path fill-rule="evenodd" clip-rule="evenodd" d="M7.92808 13.4524C7.57995 13.4286 7.15591 13.4286 6.64796 13.4286H6.59022C6.08227 13.4286 5.65823 13.4286 5.31011 13.4524C4.94771 13.4771 4.60539 13.5303 4.27351 13.6678C3.50342 13.9868 2.89159 14.5987 2.57261 15.3687C2.43515 15.7006 2.38184 16.0429 2.35711 16.4053C2.33336 16.7534 2.33336 17.1775 2.33337 17.6854V17.7432C2.33336 18.2511 2.33336 18.6752 2.35711 19.0233C2.38184 19.3857 2.43515 19.728 2.57261 20.0599C2.89159 20.83 3.50342 21.4419 4.27351 21.7608C4.60539 21.8983 4.94771 21.9516 5.31011 21.9763C5.65823 22 6.08227 22 6.59022 22H6.64796C7.15591 22 7.57995 22 7.92808 21.9763C8.29048 21.9516 8.63279 21.8983 8.96467 21.7608C9.73476 21.4419 10.3466 20.83 10.6656 20.0599C10.8031 19.728 10.8563 19.3857 10.881 19.0233C10.9048 18.6752 10.9048 18.2511 10.9048 17.7432V17.6854C10.9048 17.1775 10.9048 16.7534 10.881 16.4053C10.8563 16.0429 10.8031 15.7006 10.6656 15.3687C10.3466 14.5987 9.73476 13.9868 8.96467 13.6678C8.63279 13.5303 8.29048 13.4771 7.92808 13.4524ZM4.92955 15.2517C5.01772 15.2151 5.15168 15.1814 5.42679 15.1627C5.70961 15.1433 6.07486 15.1429 6.61909 15.1429C7.16332 15.1429 7.52857 15.1433 7.81139 15.1627C8.08651 15.1814 8.22046 15.2151 8.30864 15.2517C8.65868 15.3966 8.93678 15.6748 9.08178 16.0247C9.1183 16.1129 9.15199 16.2469 9.17076 16.522C9.19005 16.8048 9.19052 17.1701 9.19052 17.7143C9.19052 18.2585 9.19005 18.6238 9.17076 18.9067C9.15199 19.1817 9.1183 19.3157 9.08178 19.4039C8.93678 19.7539 8.65868 20.032 8.30864 20.1771C8.22046 20.2135 8.08651 20.2472 7.81139 20.266C7.52857 20.2853 7.16332 20.2857 6.61909 20.2857C6.07486 20.2857 5.70961 20.2853 5.42679 20.266C5.15168 20.2472 5.01772 20.2135 4.92955 20.1771C4.5795 20.032 4.3014 19.7539 4.1564 19.4039C4.11988 19.3157 4.0862 19.1817 4.06742 18.9067C4.04813 18.6238 4.04766 18.2585 4.04766 17.7143C4.04766 17.1701 4.04813 16.8048 4.06742 16.522C4.0862 16.2469 4.11988 16.1129 4.1564 16.0247C4.3014 15.6748 4.5795 15.3966 4.92955 15.2517Z" fill="#EEE2CA"/>
<path fill-rule="evenodd" clip-rule="evenodd" d="M19.3567 13.4524C19.0086 13.4286 18.5845 13.4286 18.0766 13.4286H18.0188C17.5109 13.4286 17.0868 13.4286 16.7386 13.4524C16.3762 13.4771 16.034 13.5303 15.7021 13.6678C14.932 13.9868 14.3201 14.5987 14.0012 15.3687C13.8637 15.7006 13.8104 16.0429 13.7857 16.4053C13.762 16.7534 13.762 17.1775 13.762 17.6854V17.7432C13.762 18.2511 13.762 18.6752 13.7857 19.0233C13.8104 19.3857 13.8637 19.728 14.0012 20.0599C14.3201 20.83 14.932 21.4419 15.7021 21.7608C16.034 21.8983 16.3762 21.9516 16.7386 21.9763C17.0868 22 17.5109 22 18.0188 22H18.0766C18.5845 22 19.0086 22 19.3567 21.9763C19.7191 21.9516 20.0614 21.8983 20.3933 21.7608C21.1633 21.4419 21.7752 20.83 22.0942 20.0599C22.2317 19.728 22.2849 19.3857 22.3096 19.0233C22.3334 18.6752 22.3334 18.2511 22.3334 17.7432V17.6854C22.3334 17.1775 22.3334 16.7534 22.3096 16.4053C22.2849 16.0429 22.2317 15.7006 22.0942 15.3687C21.7752 14.5987 21.1633 13.9868 20.3933 13.6678C20.0614 13.5303 19.7191 13.4771 19.3567 13.4524ZM16.3581 15.2517C16.4463 15.2151 16.5802 15.1814 16.8553 15.1627C17.1382 15.1433 17.5034 15.1429 18.0477 15.1429C18.5919 15.1429 18.9572 15.1433 19.24 15.1627C19.5151 15.1814 19.649 15.2151 19.7373 15.2517C20.0872 15.3966 20.3654 15.6748 20.5104 16.0247C20.5469 16.1129 20.5806 16.2469 20.5993 16.522C20.6186 16.8048 20.6191 17.1701 20.6191 17.7143C20.6191 18.2585 20.6186 18.6238 20.5993 18.9067C20.5806 19.1817 20.5469 19.3157 20.5104 19.4039C20.3654 19.7539 20.0872 20.032 19.7373 20.1771C19.649 20.2135 19.5151 20.2472 19.24 20.266C18.9572 20.2853 18.5919 20.2857 18.0477 20.2857C17.5034 20.2857 17.1382 20.2853 16.8553 20.266C16.5802 20.2472 16.4463 20.2135 16.3581 20.1771C16.0081 20.032 15.73 19.7539 15.585 19.4039C15.5485 19.3157 15.5148 19.1817 15.496 18.9067C15.4767 18.6238 15.4762 18.2585 15.4762 17.7143C15.4762 17.1701 15.4767 16.8048 15.496 16.522C15.5148 16.2469 15.5485 16.1129 15.585 16.0247C15.73 15.6748 16.0081 15.3966 16.3581 15.2517Z" fill="#EEE2CA"/>
</svg>
