<svg width="24" height="24" viewBox="0 0 24 24" fill="none" xmlns="http://www.w3.org/2000/svg">
<g clip-path="url(#clip0_220_5648)">
<path d="M15.0698 22H8.93023C3.37395 22 1 19.626 1 14.0698V7.93023C1 2.37395 3.37395 0 8.93023 0H15.0698C20.626 0 23 2.37395 23 7.93023V14.0698C23 19.626 20.626 22 15.0698 22ZM8.93023 1.53488C4.21302 1.53488 2.53488 3.21302 2.53488 7.93023V14.0698C2.53488 18.787 4.21302 20.4651 8.93023 20.4651H15.0698C19.787 20.4651 21.4651 18.787 21.4651 14.0698V7.93023C21.4651 3.21302 19.787 1.53488 15.0698 1.53488H8.93023Z" fill="#262A2B"/>
<path d="M17.3199 8.89519C17.3019 8.89519 17.2748 8.89519 17.2568 8.89519C14.1343 8.57138 11.0299 8.43804 7.95253 8.77137L6.74324 8.89519C6.36421 8.93328 6.03933 8.64757 6.00323 8.25709C5.96713 7.86662 6.23787 7.51423 6.60787 7.47613L7.81715 7.35232C10.9847 7.01899 14.1794 7.1428 17.3921 7.47613C17.7621 7.51423 18.0329 7.86662 17.9968 8.25709C17.9607 8.619 17.6629 8.89519 17.3199 8.89519Z" fill="#262A2B"/>
<path d="M14.0617 8.26666C13.7368 8.26666 13.4481 8.01905 13.3939 7.67619L13.2676 6.86666C13.2495 6.73332 13.2134 6.5238 13.1773 6.47618C13.1773 6.47618 13.0871 6.41904 12.7622 6.41904H11.21C10.8761 6.41904 10.7858 6.47618 10.7858 6.47618C10.7678 6.51428 10.7317 6.72381 10.7136 6.85714L10.5873 7.67619C10.5241 8.06667 10.1722 8.3238 9.81118 8.26666C9.44117 8.19999 9.19751 7.82856 9.25166 7.44761L9.378 6.62856C9.47727 6.01904 9.63971 5 11.21 5H12.7622C14.3415 5 14.5039 6.06666 14.5942 6.63809L14.7205 7.44761C14.7837 7.83809 14.531 8.20951 14.17 8.26666C14.1429 8.26666 14.0978 8.26666 14.0617 8.26666Z" fill="#262A2B"/>
<path d="M13.8906 17H10.0913C7.80811 17 7.70883 15.5524 7.64566 14.5905L7.25762 8.29522C7.23055 7.90475 7.51932 7.56189 7.88932 7.53332C8.26835 7.50475 8.58422 7.80952 8.61129 8.2L8.99934 14.4857C9.06251 15.419 9.07154 15.5619 10.0913 15.5619H13.8906C14.9104 15.5619 14.9194 15.419 14.9826 14.4857L15.3706 8.2C15.3977 7.80952 15.7046 7.50475 16.0926 7.53332C16.4626 7.56189 16.7514 7.89522 16.7243 8.29522L16.3363 14.581C16.2731 15.5524 16.1828 17 13.8906 17Z" fill="#262A2B"/>
</g>
<defs>
<clipPath id="clip0_220_5648">
<rect width="24" height="24" fill="white"/>
</clipPath>
</defs>
</svg>
