<svg width="24" height="24" viewBox="0 0 24 24" fill="none" xmlns="http://www.w3.org/2000/svg">
<path d="M15.0698 23H8.93023C3.37395 23 1 20.626 1 15.0698V8.93023C1 3.37395 3.37395 1 8.93023 1H15.0698C20.626 1 23 3.37395 23 8.93023V15.0698C23 20.626 20.626 23 15.0698 23ZM8.93023 2.53488C4.21302 2.53488 2.53488 4.21302 2.53488 8.93023V15.0698C2.53488 19.787 4.21302 21.4651 8.93023 21.4651H15.0698C19.787 21.4651 21.4651 19.787 21.4651 15.0698V8.93023C21.4651 4.21302 19.787 2.53488 15.0698 2.53488H8.93023Z" fill="#262A2B"/>
<path fill-rule="evenodd" clip-rule="evenodd" d="M7.21634 16.7942H9.59981C9.90405 16.7942 10.1891 16.676 10.4044 16.4598L16.4164 10.4236C16.6629 10.176 16.7991 9.84646 16.7991 9.49598C16.7991 9.1447 16.6629 8.81431 16.4164 8.56672L15.442 7.58843C14.932 7.07798 14.1025 7.07798 13.5917 7.58843L7.60865 13.5957C7.40128 13.8039 7.28359 14.0804 7.27638 14.3738L7.21634 16.7942ZM9.59981 18H6.60065C6.43893 18 6.28361 17.9341 6.17072 17.8175C6.05783 17.7018 5.99618 17.545 6.00018 17.3818L6.07544 14.3441C6.09065 13.7396 6.33324 13.1712 6.75918 12.7428L12.7431 6.73553C13.7214 5.75482 15.3123 5.75482 16.2907 6.73553L17.265 7.71383C17.7398 8.18971 18.0008 8.82235 18 9.49598C18 10.1696 17.739 10.8014 17.265 11.2765L11.2531 17.3127C10.812 17.7556 10.2243 18 9.59981 18Z" fill="#262A2B"/>
<path fill-rule="evenodd" clip-rule="evenodd" d="M15.9156 12.3636C15.7619 12.3636 15.6082 12.3049 15.4913 12.1867L11.8356 8.5163C11.601 8.28077 11.601 7.89893 11.8356 7.6634C12.0702 7.42787 12.4497 7.42787 12.6843 7.6634L16.3399 11.3346C16.5745 11.5702 16.5745 11.9512 16.3399 12.1867C16.223 12.3049 16.0693 12.3636 15.9156 12.3636Z" fill="#262A2B"/>
</svg>
