<svg width="24" height="24" viewBox="0 0 24 24" fill="none" xmlns="http://www.w3.org/2000/svg">
<g clip-path="url(#clip0_161_2495)">
<path fill-rule="evenodd" clip-rule="evenodd" d="M5.3534 1.84057C3.42827 1.84057 1.84931 3.42196 1.84931 5.35004V14.2284C1.84931 14.2935 1.8426 14.3569 1.82985 14.4181C1.9293 16.2591 3.46718 17.7379 5.32884 17.7379H7.11158C7.63749 17.7379 8.15912 17.9365 8.55054 18.3286L11.9804 21.7638L15.4104 18.3286C15.8018 17.9365 16.3235 17.7379 16.8494 17.7379H18.6321C20.5572 17.7379 22.1362 16.1565 22.1362 14.2284V5.35004C22.1362 3.42196 20.5572 1.84057 18.6321 1.84057H5.3534ZM0.00504168 14.0157C-0.0110329 14.084 -0.0195312 14.1552 -0.0195312 14.2284C-0.0195312 17.1766 2.38509 19.585 5.32884 19.585H7.11158C7.1759 19.585 7.21987 19.6081 7.2465 19.6347L11.3284 23.723C11.5014 23.8962 11.7359 23.9935 11.9804 23.9935C12.225 23.9935 12.4596 23.8962 12.6325 23.723L16.7145 19.6347C16.7411 19.6081 16.7851 19.585 16.8494 19.585H18.6321C21.5758 19.585 23.9805 17.1766 23.9805 14.2284V5.35004C23.9805 2.40183 21.5758 -0.00653076 18.6321 -0.00653076H5.3534C2.40971 -0.00653076 0.00504168 2.40183 0.00504168 5.35004V14.0157Z" fill="#262A2B"/>
<path fill-rule="evenodd" clip-rule="evenodd" d="M11.9924 5.53474C12.5018 5.53474 12.9146 5.94827 12.9146 6.45829V10.682C12.9146 11.1921 12.5018 11.6056 11.9924 11.6056C11.4832 11.6056 11.0703 11.1921 11.0703 10.682V6.45829C11.0703 5.94827 11.4832 5.53474 11.9924 5.53474Z" fill="#262A2B"/>
<path fill-rule="evenodd" clip-rule="evenodd" d="M10.7637 13.859C10.7637 13.1789 11.3141 12.6276 11.9932 12.6276H12.0055C12.6846 12.6276 13.235 13.1789 13.235 13.859C13.235 14.5391 12.6846 15.0904 12.0055 15.0904H11.9932C11.3141 15.0904 10.7637 14.5391 10.7637 13.859Z" fill="#262A2B"/>
</g>
<defs>
<clipPath id="clip0_161_2495">
<rect width="24" height="24" fill="white"/>
</clipPath>
</defs>
</svg>
