<svg width="16" height="18" viewBox="0 0 16 18" fill="none" xmlns="http://www.w3.org/2000/svg">
<path fill-rule="evenodd" clip-rule="evenodd" d="M0.467564 4.01105C-0.709898 2.33057 0.472059 0 2.50179 0H13.498C15.5587 0 16.7327 2.39361 15.4925 4.0663L11.5725 9.35298C11.1867 9.87332 10.978 10.5071 10.978 11.1586V14.8424C10.978 16.5863 9.58718 18 7.87151 18C6.15583 18 4.76501 16.5863 4.76501 14.8424V11.1035C4.76501 10.4796 4.57367 9.87129 4.21762 9.36314L0.467564 4.01105ZM7.87151 16.6154C8.83487 16.6154 9.61578 15.8216 9.61578 14.8424V11.1586C9.61578 10.2064 9.92074 9.28006 10.4846 8.51963L14.4046 3.23293C14.9683 2.47262 14.4347 1.38462 13.498 1.38462H2.50179C1.57919 1.38462 1.04193 2.44397 1.57714 3.20782L5.3272 8.55988C5.84757 9.30258 6.12722 10.1917 6.12722 11.1035V14.8424C6.12722 15.8216 6.90815 16.6154 7.87151 16.6154Z" fill="#0F1313"/>
</svg>
