<svg width="20" height="20" viewBox="0 0 20 20" fill="none" xmlns="http://www.w3.org/2000/svg">
<path fill-rule="evenodd" clip-rule="evenodd" d="M6.23928 3.09508C4.03386 3.09508 2.24357 4.90862 2.24357 7.14268C2.24357 9.85874 3.61219 12.0949 5.33897 13.785C6.96082 15.3724 8.83956 16.4171 10 16.8604C11.1608 16.4173 13.0395 15.3745 14.6612 13.7884C16.3876 12.0998 17.7564 9.86371 17.7564 7.14268C17.7564 4.9 15.967 3.09508 13.7607 3.09508C12.457 3.09508 11.2914 3.72632 10.5652 4.71263C10.4324 4.89297 10.2235 4.99937 10.0014 4.99982C9.77925 5.00028 9.56991 4.89468 9.43644 4.71485C8.70762 3.73318 7.54901 3.09508 6.23928 3.09508ZM0.833313 7.14268C0.833313 4.11963 3.25499 1.6665 6.23928 1.6665C7.70419 1.6665 9.02848 2.2574 9.99857 3.20822C10.9729 2.25034 12.3047 1.6665 13.7607 1.6665C16.7441 1.6665 19.1666 4.10918 19.1666 7.14268C19.1666 10.3836 17.5316 12.9666 15.6407 14.8161C13.7547 16.6608 11.5482 17.8439 10.2253 18.2957C10.0791 18.3457 9.92084 18.3457 9.77468 18.2957C8.45129 17.8437 6.24486 16.6581 4.35907 14.8123C2.46854 12.9619 0.833313 10.379 0.833313 7.14268Z" fill="#7A8183"/>
</svg>
