<svg width="25" height="24" viewBox="0 0 25 24" fill="none" xmlns="http://www.w3.org/2000/svg">
<path d="M10.5 17.0697C10.0858 17.0697 9.75 17.4054 9.75 17.8197C9.75 18.2339 10.0858 18.5697 10.5 18.5697H14.5C14.9142 18.5697 15.25 18.2339 15.25 17.8197C15.25 17.4054 14.9142 17.0697 14.5 17.0697H10.5Z" fill="white"/>
<path fill-rule="evenodd" clip-rule="evenodd" d="M12.7108 1.25387C12.5703 1.24871 12.4297 1.24871 12.2892 1.25387C11.3618 1.28789 10.5268 1.60323 9.61115 2.12818C8.71888 2.63974 7.69165 3.38608 6.38826 4.33305L6.31741 4.38453C5.01402 5.33149 3.98676 6.07783 3.22451 6.76835C2.44232 7.47693 1.88435 8.17368 1.56542 9.04515C1.51711 9.17717 1.47365 9.31091 1.43514 9.44611C1.18092 10.3386 1.22279 11.2303 1.4391 12.2633C1.64989 13.27 2.04227 14.4776 2.54013 16.0098L2.5672 16.0931C3.06503 17.6253 3.45741 18.8329 3.87858 19.7712C4.31077 20.7341 4.801 21.4801 5.53127 22.0527C5.64189 22.1394 5.75566 22.2221 5.87234 22.3005C6.6426 22.8181 7.50355 23.0538 8.55284 23.1673C9.57539 23.2779 10.8451 23.2779 12.4562 23.2779H12.5438C14.1549 23.2779 15.4246 23.2779 16.4472 23.1673C17.4965 23.0538 18.3574 22.8181 19.1277 22.3005C19.2444 22.2221 19.3581 22.1394 19.4687 22.0527C20.199 21.4801 20.6892 20.7341 21.1214 19.7712C21.5426 18.8329 21.935 17.6253 22.4328 16.093L22.4599 16.0097C22.9577 14.4776 23.3501 13.2699 23.5609 12.2633C23.7772 11.2303 23.8191 10.3386 23.5649 9.44611C23.5264 9.31091 23.4829 9.17717 23.4346 9.04515C23.1157 8.17368 22.5577 7.47693 21.7755 6.76835C21.0132 6.07782 19.986 5.33149 18.6826 4.38452L18.6117 4.33303C17.3084 3.38607 16.2811 2.63973 15.3889 2.12818C14.4733 1.60323 13.6382 1.28789 12.7108 1.25387ZM12.3442 2.75286C12.448 2.74905 12.552 2.74905 12.6558 2.75286C13.2512 2.7747 13.8443 2.97167 14.6428 3.42948C15.4566 3.89603 16.4189 4.59396 17.7655 5.57232C19.1121 6.55068 20.0733 7.25026 20.7684 7.88002C21.4506 8.49798 21.8212 9.00112 22.026 9.56067C22.0617 9.65824 22.0938 9.75709 22.1222 9.85703C22.2855 10.4301 22.2814 11.055 22.0928 11.9558C21.9005 12.874 21.5341 14.0049 21.0198 15.5879C20.5054 17.1709 20.1371 18.3012 19.753 19.157C19.3761 19.9967 19.0121 20.5046 18.5432 20.8723C18.4614 20.9364 18.3773 20.9975 18.2911 21.0555C17.7965 21.3878 17.201 21.577 16.2859 21.676C15.3533 21.7768 14.1645 21.7779 12.5 21.7779C10.8355 21.7779 9.64673 21.7768 8.71414 21.676C7.79905 21.577 7.2035 21.3878 6.70894 21.0555C6.62269 20.9975 6.5386 20.9364 6.45684 20.8723C5.98796 20.5046 5.62396 19.9967 5.24705 19.157C4.86293 18.3012 4.4946 17.1709 3.98025 15.5879C3.4659 14.0049 3.09951 12.874 2.90725 11.9558C2.71861 11.055 2.71454 10.4301 2.87776 9.85703C2.90623 9.7571 2.93834 9.65824 2.97405 9.56067C3.17883 9.00112 3.54942 8.49798 4.23157 7.88002C4.92676 7.25026 5.88791 6.55068 7.23451 5.57232C8.5811 4.59396 9.54345 3.89603 10.3572 3.42948C11.1557 2.97167 11.7488 2.7747 12.3442 2.75286Z" fill="white"/>
</svg>
