<svg width="20" height="18" viewBox="0 0 20 18" fill="none" xmlns="http://www.w3.org/2000/svg">
<path fill-rule="evenodd" clip-rule="evenodd" d="M6.23934 2.09526C4.03392 2.09526 2.24363 3.90881 2.24363 6.14287C2.24363 8.85892 3.61225 11.095 5.33903 12.7852C6.96088 14.3726 8.83962 15.4173 10.0001 15.8606C11.1609 15.4174 13.0396 14.3746 14.6612 12.7886C16.3877 11.1 17.7564 8.86389 17.7564 6.14287C17.7564 3.90018 15.9671 2.09526 13.7607 2.09526C12.4571 2.09526 11.2915 2.7265 10.5653 3.71281C10.4325 3.89315 10.2235 3.99955 10.0015 4.00001C9.77931 4.00047 9.56997 3.89486 9.4365 3.71504C8.70768 2.73337 7.54907 2.09526 6.23934 2.09526ZM0.833374 6.14287C0.833374 3.11981 3.25505 0.666687 6.23934 0.666687C7.70426 0.666687 9.02854 1.25758 9.99863 2.20841C10.973 1.25052 12.3048 0.666687 13.7607 0.666687C16.7441 0.666687 19.1667 3.10936 19.1667 6.14287C19.1667 9.38378 17.5317 11.9668 15.6408 13.8162C13.7548 15.661 11.5483 16.8441 10.2253 17.2959C10.0792 17.3458 9.9209 17.3458 9.77474 17.2959C8.45135 16.8439 6.24492 15.6582 4.35913 13.8125C2.4686 11.9621 0.833374 9.37921 0.833374 6.14287Z" fill="#7A8183"/>
</svg>
