<svg width="24" height="24" viewBox="0 0 24 24" fill="none" xmlns="http://www.w3.org/2000/svg">
<g clip-path="url(#clip0_158_4644)">
<path d="M9.17441 12.5653C9.13592 12.3726 7.8102 5.74402 7.76816 5.53397C7.70248 5.20533 7.41388 4.96875 7.07872 4.96875H5.67247C5.33731 4.96875 5.0487 5.20533 4.98303 5.53397C4.94033 5.74758 3.61325 12.3829 3.57678 12.5652C3.50061 12.946 3.74759 13.3164 4.12836 13.3926C4.50913 13.4687 4.87958 13.2218 4.9557 12.841L5.40514 10.5938H7.34605L7.79548 12.841C7.87166 13.222 8.24225 13.4688 8.62283 13.3926C9.00359 13.3164 9.25058 12.946 9.17441 12.5653ZM5.68639 9.1875L6.24889 6.375H6.5023L7.0648 9.1875H5.68639Z" fill="#262A2B"/>
<path d="M20.439 10.5938H18.3296V9.89062C18.3296 9.50231 18.0148 9.1875 17.6265 9.1875C17.2382 9.1875 16.9233 9.50231 16.9233 9.89062V10.5938H14.814C14.4257 10.5938 14.1108 10.9086 14.1108 11.2969C14.1108 11.6852 14.4257 12 14.814 12H14.9841C15.3848 13.2943 15.9879 14.2878 16.6517 15.0839C16.1115 15.5781 15.5648 15.9833 15.0779 16.3728C14.7746 16.6154 14.7255 17.0579 14.9681 17.3611C15.2108 17.6645 15.6533 17.7134 15.9564 17.4709C16.446 17.0791 17.0329 16.6438 17.6265 16.0991C18.2204 16.6442 18.8084 17.0803 19.2966 17.4709C19.5998 17.7135 20.0423 17.6643 20.2848 17.3611C20.5274 17.0579 20.4782 16.6154 20.1751 16.3728C19.6894 15.9842 19.142 15.5785 18.6012 15.0839C19.265 14.2878 19.8682 13.2943 20.2688 12H20.439C20.8273 12 21.1421 11.6852 21.1421 11.2969C21.1421 10.9086 20.8273 10.5938 20.439 10.5938ZM17.6265 14.0505C17.1776 13.4871 16.7739 12.8146 16.4694 11.9953H18.7834C18.4791 12.8146 18.0753 13.4871 17.6265 14.0505Z" fill="#262A2B"/>
<path d="M21.8911 4.26562H11.7473L11.4459 1.84772C11.3142 0.794344 10.4144 0 9.35285 0H2.10986C0.946754 0 0.000488281 0.946266 0.000488281 2.10938V17.625C0.000488281 18.7881 0.946754 19.7344 2.10986 19.7344H8.03875L8.33632 22.1523C8.46775 23.2035 9.36757 24 10.4294 24H21.8911C23.0542 24 24.0005 23.0537 24.0005 21.8906V6.375C24.0005 5.21189 23.0542 4.26562 21.8911 4.26562ZM2.10986 18.3281C1.72216 18.3281 1.40674 18.0127 1.40674 17.625V2.10938C1.40674 1.72167 1.72216 1.40625 2.10986 1.40625H9.35285C9.70671 1.40625 10.0067 1.671 10.0505 2.02191C10.1524 2.83922 11.9821 17.5174 12.0832 18.3281H2.10986ZM9.69068 21.6445L9.4556 19.7344H11.342L9.69068 21.6445ZM22.5942 21.8906C22.5942 22.2783 22.2788 22.5938 21.8911 22.5938H10.729L13.4057 19.4975C13.5427 19.343 13.6041 19.1378 13.5758 18.9339L11.9226 5.67188H21.8911C22.2788 5.67188 22.5942 5.9873 22.5942 6.375V21.8906Z" fill="#262A2B"/>
</g>
<defs>
<clipPath id="clip0_158_4644">
<rect width="24" height="24" fill="white"/>
</clipPath>
</defs>
</svg>
