<svg width="20" height="22" viewBox="0 0 20 22" fill="none" xmlns="http://www.w3.org/2000/svg">
<path fill-rule="evenodd" clip-rule="evenodd" d="M9.98673 6.19233e-05C13.0013 -0.0118999 15.8562 1.70982 17.1176 4.57965C17.5519 5.5665 17.7142 6.61099 17.7142 7.62281V10.6786C17.7142 11.2584 17.9494 11.8091 18.383 12.2287L19.01 12.836C19.0103 12.8363 19.0107 12.8367 19.011 12.837C19.6405 13.4434 20 14.2687 20 15.1328V15.1404C19.9842 16.8678 18.5385 18.245 16.7885 18.245C16.7412 18.245 16.6945 18.2412 16.6488 18.2337H3.21142C1.45449 18.2337 0 16.8591 0 15.1215C0 14.2574 0.359472 13.4322 0.988936 12.8257C0.989293 12.8254 0.989649 12.8251 0.990006 12.8247L1.61664 12.2176C2.05019 11.7981 2.28571 11.2471 2.28571 10.6674V7.4649C2.28571 3.32922 5.74745 0.00101589 9.98673 6.19233e-05ZM16.9083 16.549C17.6823 16.4902 18.2769 15.8656 18.2857 15.129C18.2846 14.7319 18.1189 14.3413 17.8128 14.0467L17.8109 14.0448L17.1827 13.4362C16.4276 12.7056 16 11.7226 16 10.6786V7.62281C16 6.78535 15.8652 5.98056 15.5452 5.25338C14.5668 3.02715 12.3483 1.68159 9.99222 1.69149L9.98858 1.6915C6.66301 1.6915 3.99997 4.2942 3.99997 7.4649V10.6674C3.99997 11.7112 3.57243 12.694 2.81765 13.4246C2.81776 13.4245 2.81754 13.4247 2.81765 13.4246L2.18908 14.0335L2.18713 14.0354C1.88012 14.3309 1.71428 14.7231 1.71428 15.1215C1.71428 15.8872 2.36264 16.5423 3.21142 16.5423H16.8C16.8365 16.5423 16.8727 16.5446 16.9083 16.549Z" fill="#0F1313"/>
<path fill-rule="evenodd" clip-rule="evenodd" d="M7.34863 21.1543C7.34863 20.6872 7.73236 20.3086 8.20577 20.3086H11.7829C12.2563 20.3086 12.64 20.6872 12.64 21.1543C12.64 21.6214 12.2563 22 11.7829 22H8.20577C7.73236 22 7.34863 21.6214 7.34863 21.1543Z" fill="#0F1313"/>
</svg>
