<svg width="24" height="24" viewBox="0 0 24 24" fill="none" xmlns="http://www.w3.org/2000/svg">
<path d="M22.3556 6.62364L22.3378 6.59294C22.3132 6.54189 22.2848 6.493 22.2531 6.44654L18.9143 0.674064C18.6738 0.258282 18.226 0 17.7457 0H6.25486C5.77378 0 5.32566 0.258891 5.08523 0.675798L1.69195 6.56265C1.66138 6.61572 1.63935 6.67122 1.62379 6.72761C1.57602 6.85656 1.54977 6.99592 1.54977 7.14133V22.346C1.54977 23.258 2.29176 24 3.20376 24H20.7962C21.7082 24 22.4502 23.258 22.4502 22.346V7.08559C22.4502 7.0652 22.4495 7.04495 22.4485 7.0248C22.458 6.88947 22.4287 6.74992 22.3556 6.62364ZM12.7274 1.40677H17.713L20.3395 5.9477H12.7274V1.40677ZM6.28763 1.40677H11.3207V5.9477H3.67012L6.28763 1.40677ZM21.0434 22.346C21.0434 22.4823 20.9325 22.5932 20.7962 22.5932H3.20376C3.06745 22.5932 2.95654 22.4823 2.95654 22.346V7.35447H21.0434V22.346Z" fill="#EEE2CA"/>
<path d="M15.1933 12.6572C14.9187 12.3825 14.4733 12.3825 14.1986 12.6572L11.0579 15.7979L9.85017 14.5902C9.57553 14.3155 9.13012 14.3155 8.85543 14.5902C8.58074 14.8648 8.58074 15.3102 8.85543 15.5849L10.5606 17.29C10.6979 17.4273 10.878 17.496 11.0579 17.496C11.2379 17.496 11.418 17.4273 11.5552 17.29L15.1933 13.6519C15.468 13.3772 15.468 12.9318 15.1933 12.6572Z" fill="#EEE2CA"/>
</svg>
