<svg width="24" height="24" viewBox="0 0 24 24" fill="none" xmlns="http://www.w3.org/2000/svg">
<path fill-rule="evenodd" clip-rule="evenodd" d="M20.5556 2C21.9056 2 23 3.1193 23 4.50002V19.5C23 20.8807 21.9056 22 20.5556 22H3.44443C2.09443 22 1 20.8807 1 19.5V4.50002C1 3.1193 2.09443 2 3.44443 2H20.5556ZM15.6667 3.25001H20.5556C21.2306 3.25001 21.7778 3.80966 21.7778 4.50002V19.5C21.7778 20.1904 21.2306 20.75 20.5556 20.75H3.44443C2.76942 20.75 2.22223 20.1904 2.22223 19.5V4.50002C2.22223 3.80966 2.76942 3.25001 3.44443 3.25001H8.33336L8.33333 10.7699L12 9.36398L15.6667 10.7699L15.6667 3.25001ZM14.4445 3.25001H9.55559L9.55556 8.9663L12 8.02901L14.4445 8.96633L14.4445 3.25001Z" fill="#EEE2CA"/>
</svg>
