<svg width="24" height="24" viewBox="0 0 24 24" fill="none" xmlns="http://www.w3.org/2000/svg">
<path d="M22.8058 6.62364L22.788 6.59294C22.7634 6.54189 22.735 6.493 22.7033 6.44654L19.3645 0.674064C19.124 0.258282 18.6762 0 18.1959 0H6.70506C6.22398 0 5.77585 0.258891 5.53543 0.675798L2.14214 6.56265C2.11158 6.61572 2.08955 6.67122 2.07399 6.72761C2.02622 6.85656 1.99997 6.99592 1.99997 7.14133V22.346C1.99997 23.258 2.74196 24 3.65396 24H21.2464C22.1584 24 22.9004 23.258 22.9004 22.346V7.08559C22.9004 7.0652 22.8997 7.04495 22.8987 7.0248C22.9082 6.88947 22.8789 6.74992 22.8058 6.62364ZM13.1776 1.40677H18.1632L20.7897 5.9477H13.1776V1.40677ZM6.73782 1.40677H11.7708V5.9477H4.12032L6.73782 1.40677ZM21.4936 22.346C21.4936 22.4823 21.3827 22.5932 21.2464 22.5932H3.65396C3.51764 22.5932 3.40674 22.4823 3.40674 22.346V7.35447H21.4936V22.346Z" fill="#EEE2CA"/>
<path d="M13.0605 15L14.7803 13.2803C15.0733 12.9873 15.0733 12.5128 14.7803 12.2198C14.4873 11.9267 14.0127 11.9267 13.7197 12.2198L12 13.9395L10.2803 12.2198C9.98725 11.9267 9.51275 11.9267 9.21975 12.2198C8.92675 12.5128 8.92675 12.9873 9.21975 13.2803L10.9395 15L9.21975 16.7197C8.92675 17.0127 8.92675 17.4873 9.21975 17.7803C9.36625 17.9268 9.558 18 9.75 18C9.942 18 10.1338 17.9268 10.2803 17.7803L12 16.0605L13.7197 17.7803C13.8662 17.9268 14.058 18 14.25 18C14.442 18 14.6337 17.9268 14.7803 17.7803C15.0733 17.4873 15.0733 17.0127 14.7803 16.7197L13.0605 15Z" fill="#EEE2CA"/>
</svg>
