<svg width="24" height="24" viewBox="0 0 24 24" fill="none" xmlns="http://www.w3.org/2000/svg">
<path fill-rule="evenodd" clip-rule="evenodd" d="M5.47717 8.3076C5.47717 4.80819 8.41588 1.99997 12.0001 1.99997C15.5843 1.99997 18.5229 4.80819 18.5229 8.3076C18.5229 11.807 15.5843 14.6152 12.0001 14.6152C8.41588 14.6152 5.47717 11.807 5.47717 8.3076ZM12.0001 3.53842C9.23771 3.53842 7.0327 5.69425 7.0327 8.3076C7.0327 10.9209 9.23771 13.0768 12.0001 13.0768C14.7625 13.0768 16.9674 10.9209 16.9674 8.3076C16.9674 5.69425 14.7625 3.53842 12.0001 3.53842Z" fill="#EEE2CA"/>
<path fill-rule="evenodd" clip-rule="evenodd" d="M17.5274 21.5805C14.9994 17.5681 8.92843 17.5903 6.44231 21.6306C6.21893 21.9935 5.74047 22.1086 5.37353 21.8877C5.0066 21.6669 4.89017 21.1936 5.11348 20.8307C8.20547 15.8061 15.7155 15.7856 18.8515 20.7732L18.8581 20.7836L18.8891 20.8349C19.1101 21.1992 18.9906 21.6717 18.6223 21.8903C18.254 22.1088 17.7763 21.9907 17.5552 21.6264L17.5274 21.5805Z" fill="#EEE2CA"/>
</svg>
