<svg width="24" height="24" viewBox="0 0 24 24" fill="none" xmlns="http://www.w3.org/2000/svg">
<g clip-path="url(#clip0_240_7674)">
<path d="M20.6295 0.95H3.37046C2.03578 0.95 0.95 2.03573 0.95 3.37041V17.8681C0.95 19.2028 2.03578 20.2885 3.37046 20.2885H8.95085L11.5088 22.8465C11.6391 22.9768 11.8157 23.05 12 23.05C12.1841 23.05 12.3608 22.9768 12.4911 22.8465L15.0491 20.2885H20.6295C21.9643 20.2885 23.05 19.2028 23.05 17.8681V3.37041C23.05 2.03573 21.9642 0.95 20.6295 0.95ZM21.6609 17.8681C21.6609 18.4367 21.1982 18.8995 20.6295 18.8995H14.7614C14.5772 18.8995 14.4006 18.9726 14.2703 19.1029C14.2703 19.1029 14.2703 19.1029 14.2703 19.1029L12 21.3733L9.72965 19.1029C9.59941 18.9727 9.42277 18.8995 9.23853 18.8995H3.37046C2.80179 18.8995 2.33906 18.4367 2.33906 17.8681V3.37041C2.33906 2.80175 2.80179 2.33906 3.37046 2.33906H20.6295C21.1982 2.33906 21.6609 2.80175 21.6609 3.37041V17.8681Z" fill="#262A2B" stroke="#262A2B" stroke-width="0.1"/>
<path d="M5.89513 8.83727L5.89513 8.83726C5.97685 8.5858 6.19419 8.40258 6.4558 8.36457L9.85625 7.87034L11.3772 4.78895C11.4942 4.55188 11.7356 4.40181 11.9999 4.40181C12.2643 4.40181 12.5057 4.55188 12.6228 4.7889L14.1438 7.87034L17.544 8.36457C17.8056 8.40258 18.023 8.58579 18.1047 8.8373C18.1047 8.83731 18.1047 8.83731 18.1047 8.83732L5.89513 8.83727ZM5.89513 8.83727C5.81345 9.08869 5.88161 9.36469 6.07089 9.54921L6.10579 9.5134M5.89513 8.83727L6.10579 9.5134M6.10579 9.5134L6.07089 9.54921L8.53162 11.9477L7.95083 15.3344C7.90615 15.595 8.01325 15.8583 8.22711 16.0137L8.22713 16.0137M6.10579 9.5134L8.22713 16.0137M8.22713 16.0137C8.44103 16.1691 8.72458 16.1896 8.95855 16.0666L8.93528 16.0224M8.22713 16.0137L8.93528 16.0224M8.93528 16.0224L8.95855 16.0666L11.9999 14.4676L15.0416 16.0666L15.0649 16.0224L15.0416 16.0666C15.1432 16.12 15.2542 16.1464 15.3647 16.1464H15.3674H15.3675M8.93528 16.0224L15.3675 16.1464M15.3675 16.1464C15.7503 16.1454 16.0602 15.8348 16.0602 15.4519M15.3675 16.1464L16.0602 15.4519M16.0602 15.4519C16.0602 15.3991 16.0543 15.3476 16.0432 15.2981M16.0602 15.4519L16.0432 15.2981M16.0432 15.2981L15.4682 11.9477L16.0432 15.2981ZM9.96245 11.8226L9.96245 11.8226L9.7278 11.2437L9.7627 11.2079L9.7627 11.2079L8.04826 9.5368L10.4174 9.19245C10.6436 9.15957 10.8391 9.01752 10.9403 8.81254L12 6.66552L13.0598 8.81259C13.161 9.01752 13.3565 9.15957 13.5827 9.19245L15.9516 9.53679L14.2371 11.2079C14.0734 11.3674 13.9987 11.5974 14.0374 11.8227L14.4423 14.1822L12.3231 13.0682C12.1208 12.9619 11.8791 12.9619 11.6768 13.0682L11.7 13.1125L11.6768 13.0682L9.55779 14.1822L9.96245 11.8226Z" fill="#262A2B" stroke="#262A2B" stroke-width="0.1"/>
</g>
<defs>
<clipPath id="clip0_240_7674">
<rect width="24" height="24" fill="white"/>
</clipPath>
</defs>
</svg>
