<svg width="24" height="24" viewBox="0 0 24 24" fill="none" xmlns="http://www.w3.org/2000/svg">
<g clip-path="url(#clip0_161_2533)">
<path d="M8.65162 18.4186C8.43952 18.4186 8.22743 18.3405 8.05999 18.173L5.82743 15.9405C5.59301 15.706 5.51487 15.3377 5.64883 15.0251C5.78278 14.7126 6.08417 14.5116 6.41906 14.5116H13.1168C13.5744 14.5116 13.954 14.8912 13.954 15.3488C13.954 15.8065 13.5744 16.186 13.1168 16.186H8.43952L9.24324 16.9898C9.56696 17.3135 9.56696 17.8493 9.24324 18.173C9.0758 18.3405 8.86371 18.4186 8.65162 18.4186Z" fill="#262A2B"/>
<path d="M6.41889 16.186C6.2068 16.186 5.99471 16.1078 5.82726 15.9404C5.50354 15.6167 5.50354 15.0808 5.82726 14.7571L8.05982 12.5246C8.38354 12.2008 8.91936 12.2008 9.24308 12.5246C9.5668 12.8483 9.5668 13.3841 9.24308 13.7078L7.01052 15.9404C6.84308 16.1078 6.63098 16.186 6.41889 16.186Z" fill="#262A2B"/>
<path d="M15.3488 24H8.65116C2.58977 24 0 21.4102 0 15.3488V8.65116C0 2.58977 2.58977 0 8.65116 0H14.2326C14.6902 0 15.0698 0.379535 15.0698 0.837209C15.0698 1.29488 14.6902 1.67442 14.2326 1.67442H8.65116C3.50512 1.67442 1.67442 3.50512 1.67442 8.65116V15.3488C1.67442 20.4949 3.50512 22.3256 8.65116 22.3256H15.3488C20.4949 22.3256 22.3256 20.4949 22.3256 15.3488V9.76744C22.3256 9.30977 22.7051 8.93023 23.1628 8.93023C23.6205 8.93023 24 9.30977 24 9.76744V15.3488C24 21.4102 21.4102 24 15.3488 24Z" fill="#262A2B"/>
<path d="M23.163 10.6046H18.6978C14.8802 10.6046 13.3955 9.11999 13.3955 5.30231V0.837194C13.3955 0.50231 13.5964 0.189752 13.909 0.0669617C14.2216 -0.0669918 14.5788 0.0111477 14.8243 0.245566L23.7546 9.1758C23.989 9.41022 24.0671 9.7786 23.9332 10.0912C23.7992 10.4037 23.4978 10.6046 23.163 10.6046ZM15.0699 2.85766V5.30231C15.0699 8.18231 15.8178 8.93022 18.6978 8.93022H21.1425L15.0699 2.85766Z" fill="#262A2B"/>
</g>
<defs>
<clipPath id="clip0_161_2533">
<rect width="24" height="24" fill="white"/>
</clipPath>
</defs>
</svg>
