<svg width="24" height="24" viewBox="0 0 24 24" fill="none" xmlns="http://www.w3.org/2000/svg">
<path d="M3.89472 18.5708H12C12.3767 18.5708 12.679 18.2615 12.679 17.8826C12.679 17.5037 12.3768 17.1943 12 17.1943H3.89472C2.99371 17.1943 2.25788 16.449 2.25788 15.5296V9.15898H21.7421V15.5296C21.7421 15.9085 22.0443 16.2179 22.421 16.2179C22.7978 16.2179 23.1 15.9085 23.1 15.5296V4.94128C23.1 3.26586 21.758 1.90009 20.1053 1.90009H3.89472C2.24196 1.90005 0.9 3.26586 0.9 4.94128V15.5296C0.9 17.205 2.24196 18.5708 3.89472 18.5708ZM3.89472 3.27656H20.1052C21.0062 3.27656 21.7421 4.0219 21.7421 4.94128V7.78247H2.25788V4.94128C2.25788 4.02185 2.99371 3.27656 3.89472 3.27656Z" fill="#262A2B" stroke="#262A2B" stroke-width="0.2"/>
<path d="M6.21031 12.4884C5.8336 12.4884 5.53135 12.7978 5.53135 13.1767C5.53135 13.5556 5.83355 13.8649 6.21031 13.8649H8.52611C8.90282 13.8649 9.20507 13.5556 9.20507 13.1767C9.20507 12.7978 8.90286 12.4884 8.52611 12.4884H6.21031Z" fill="#262A2B" stroke="#262A2B" stroke-width="0.2"/>
<path d="M18.2701 13.8669L18.2701 13.8669C18.0047 13.5973 17.5742 13.5973 17.3088 13.8669L17.3088 13.8669L13.8352 17.3963C13.5707 17.665 13.5707 18.0997 13.8351 18.3684L13.8352 18.3684L17.3088 21.8979C17.4413 22.0325 17.6154 22.1 17.7894 22.1C17.9635 22.1 18.1376 22.0324 18.27 21.8979C18.5345 21.6292 18.5345 21.1945 18.27 20.9258L18.27 20.9257L15.9521 18.5706H22.421C22.7978 18.5706 23.1 18.2612 23.1 17.8824C23.1 17.5035 22.7978 17.1941 22.421 17.1941H15.9521L18.2701 14.839C18.5345 14.5703 18.5345 14.1356 18.2701 13.8669Z" fill="#262A2B" stroke="#262A2B" stroke-width="0.2"/>
</svg>
