<svg width="24" height="24" viewBox="0 0 24 24" fill="none" xmlns="http://www.w3.org/2000/svg">
<g clip-path="url(#clip0_158_4601)">
<path d="M15.5288 12.1224H15.585C16.0901 12.1224 16.472 11.7278 16.472 11.2417C16.472 10.7556 16.034 10.3611 15.5288 10.3611C15.0237 10.3611 14.6138 10.7556 14.6138 11.2417C14.6138 11.7278 15.0237 12.1224 15.5288 12.1224Z" fill="#262A2B"/>
<path d="M8.47071 12.1224H8.41458C7.90946 12.1224 7.49951 11.7278 7.49951 11.2417C7.49951 10.7556 7.90946 10.3611 8.41458 10.3611C8.91971 10.3611 9.35772 10.7556 9.35772 11.2417C9.35772 11.7278 8.97583 12.1224 8.47071 12.1224Z" fill="#262A2B"/>
<path fill-rule="evenodd" clip-rule="evenodd" d="M5.84471 5.26899C6.00629 3.91778 6.62782 2.68414 7.63398 1.7249C8.80771 0.604723 10.3915 0.0399377 12.0166 1.52588e-05C15.1833 1.52588e-05 17.8037 2.30733 18.157 5.26947C20.3349 5.77021 21.8572 6.60982 22.8164 7.81498C24.111 9.44123 24.3403 11.6534 23.5204 14.5807C21.6903 21.1127 20.5214 24 12.0003 24C3.47916 24 2.31031 21.1127 0.480165 14.5807C-0.340961 11.6534 -0.110363 9.44123 1.18294 7.81498C2.14255 6.60943 3.66556 5.76966 5.84471 5.26899ZM16.2401 4.93651C15.7732 3.11087 14.0725 1.7603 11.9922 1.7613C10.8319 1.7613 9.74358 2.19105 8.9224 2.97541C8.34779 3.5235 7.95149 4.19887 7.76144 4.9363C9.0071 4.77997 10.4165 4.70337 12.0003 4.70337C13.5846 4.70337 14.9943 4.78004 16.2401 4.93651ZM2.63608 8.88701C3.93304 7.25724 6.99549 6.46466 12.0003 6.46466C17.0039 6.46466 20.0663 7.25724 21.3633 8.88701C22.2881 10.0471 22.415 11.7603 21.7537 14.1216C20.0517 20.1933 19.4783 22.2387 12.0003 22.2387C4.52113 22.2387 3.94768 20.1933 2.24687 14.1216C1.58435 11.7603 1.71124 10.0471 2.63608 8.88701Z" fill="#262A2B"/>
</g>
<defs>
<clipPath id="clip0_158_4601">
<rect width="24" height="24" fill="white"/>
</clipPath>
</defs>
</svg>
