<svg width="18" height="16" viewBox="0 0 18 16" fill="none" xmlns="http://www.w3.org/2000/svg">
<path d="M11.9591 0.836383C12.3322 0.443006 12.7462 0.116897 13.2753 0.0283444C13.388 0.00948375 13.5016 0 13.6156 0C13.7295 0 13.8432 0.00948375 13.9559 0.0283444C14.485 0.116897 14.899 0.443006 15.272 0.836383C15.6355 1.21971 16.0417 1.75781 16.5338 2.40991L17.8503 4.15421C18.0879 4.46895 18.0376 4.92639 17.738 5.17593C17.4384 5.42548 17.003 5.37264 16.7654 5.05791L15.4751 3.34836C14.9598 2.66568 14.6057 2.19827 14.3079 1.88075V14.303C14.3079 14.7047 13.9979 15.0303 13.6156 15.0303C13.2332 15.0303 12.9233 14.7047 12.9233 14.303V1.88075C12.6255 2.19827 12.2714 2.66567 11.7561 3.34836L10.4658 5.05791C10.2282 5.37264 9.79274 5.42548 9.4932 5.17593C9.19357 4.92639 9.14327 4.46895 9.38077 4.15421L10.6974 2.4099C11.1895 1.75781 11.5957 1.21971 11.9591 0.836383Z" fill="#0F1313"/>
<path d="M5.07693 1.697C5.07693 1.29534 4.76697 0.969727 4.38462 0.969727C4.00227 0.969727 3.69232 1.29534 3.69232 1.697V14.1193C3.39448 13.8017 3.0404 13.3343 2.52512 12.6517L1.2348 10.9421C0.99725 10.6274 0.561809 10.5746 0.262207 10.8241C-0.0373948 11.0737 -0.0876931 11.5311 0.14986 11.8458L1.46639 13.5901C1.95856 14.2423 2.36468 14.7803 2.72818 15.1637C3.1012 15.5571 3.51524 15.8831 4.04431 15.9717C4.15703 15.9905 4.27073 16 4.38462 16C4.49851 16 4.61222 15.9905 4.72493 15.9717C5.25401 15.8831 5.66805 15.5571 6.04107 15.1637C6.40457 14.7803 6.81069 14.2422 7.30289 13.5901L8.61938 11.8458C8.85698 11.5311 8.80667 11.0737 8.50704 10.8241C8.20741 10.5746 7.772 10.6274 7.5344 10.9421L6.24413 12.6517C5.72885 13.3343 5.37477 13.8017 5.07693 14.1193V1.697Z" fill="#0F1313"/>
</svg>
