<svg width="24" height="24" viewBox="0 0 24 24" fill="none" xmlns="http://www.w3.org/2000/svg">
<path fill-rule="evenodd" clip-rule="evenodd" d="M13.8162 3.02616C11.9186 2.58102 9.94363 2.58102 8.04597 3.02616C5.55521 3.61041 3.61041 5.55521 3.02616 8.04597C2.58102 9.94363 2.58102 11.9186 3.02616 13.8162C3.61041 16.3069 5.55521 18.2517 8.04597 18.8359C9.94363 19.2811 11.9186 19.2811 13.8162 18.8359C16.3069 18.2517 18.2517 16.3069 18.8359 13.8162C19.2811 11.9186 19.2811 9.94363 18.8359 8.04597C18.2517 5.55521 16.3069 3.61041 13.8162 3.02616ZM7.65949 1.37857C9.81129 0.87381 12.0508 0.87381 14.2026 1.37857C17.3192 2.1096 19.7525 4.54299 20.4836 7.6595C20.9883 9.81129 20.9883 12.0508 20.4836 14.2026C20.185 15.4752 19.6027 16.6339 18.8059 17.6092L22.7522 21.5556C23.0826 21.886 23.0826 22.4217 22.7522 22.7522C22.4217 23.0826 21.886 23.0826 21.5556 22.7522L17.6092 18.8059C16.6339 19.6027 15.4752 20.185 14.2026 20.4836C12.0508 20.9883 9.81129 20.9883 7.6595 20.4836C4.543 19.7525 2.1096 17.3192 1.37857 14.2026C0.87381 12.0508 0.87381 9.81129 1.37857 7.65949C2.1096 4.54299 4.54299 2.1096 7.65949 1.37857Z" fill="#0F1313"/>
</svg>
