<svg width="24" height="24" viewBox="0 0 24 24" fill="none" xmlns="http://www.w3.org/2000/svg">
<g clip-path="url(#clip0_163_2555)">
<path fill-rule="evenodd" clip-rule="evenodd" d="M5.23083 0H18.7693C20.1605 0 21.4793 0.554046 22.4521 1.54051C23.4244 2.51404 23.9728 3.84039 23.9877 5.22085L23.9878 5.23074L23.9878 18.7693C23.9878 20.157 23.4364 21.4863 22.4643 22.4596C21.4895 23.448 20.1577 24 18.7693 24H5.23083C3.83524 24 2.50682 23.4306 1.5381 22.4619L1.53312 22.4569C0.566954 21.4759 0.0150055 20.1648 0.000103349 18.7792L0 18.7693L5.15864e-05 5.23074C5.15864e-05 3.83127 0.572049 2.51897 1.53314 1.54309L1.54303 1.53305C2.52405 0.566888 3.83523 0.0149539 5.22086 5.17625e-05L5.23083 0ZM5.23608 1.84615C4.33659 1.85702 3.48545 2.21387 2.84355 2.84355C2.20771 3.49167 1.84621 4.34334 1.84621 5.23074V18.764C1.85709 19.6646 2.21481 20.5168 2.84597 21.1589C3.47704 21.7887 4.33831 22.1538 5.23083 22.1538H18.7693C19.6689 22.1538 20.5267 21.796 21.1516 21.1615L21.1566 21.1565C21.783 20.53 22.1416 19.6696 22.1416 18.7693V5.23599C22.1306 4.33007 21.7694 3.46869 21.1442 2.84352L21.1393 2.83854C20.5124 2.202 19.6661 1.84615 18.7693 1.84615H5.23608Z" fill="#262A2B"/>
<path fill-rule="evenodd" clip-rule="evenodd" d="M5.77295 0.0246277H18.2899V12.603C18.2899 13.3907 18.0748 14.3702 17.2043 14.764C16.4625 15.0997 15.7135 14.7982 15.1357 14.3754H15.078L12.4229 11.9654C12.308 11.8677 12.168 11.8154 12.0129 11.8154C11.8515 11.8154 11.7186 11.8714 11.6247 11.9568L9.22784 14.1324L9.22599 14.1341C8.62725 14.6828 7.75077 15.1517 6.87953 14.7606C6.01472 14.3724 5.77295 13.4112 5.77295 12.603V0.0246277ZM7.6191 1.87078V12.603C7.6191 12.7898 7.63941 12.9214 7.66223 13.0079C7.73896 12.9668 7.84618 12.8946 7.97962 12.7722L7.98331 12.7688L10.3828 10.5908C10.8304 10.1842 11.4115 9.96922 12.0129 9.96922C12.6183 9.96922 13.1901 10.1858 13.6402 10.5773L13.6476 10.5837L15.791 12.5292H15.8064L16.0675 12.7581C16.2092 12.8822 16.323 12.958 16.4064 13.0027C16.4267 12.9132 16.4437 12.7828 16.4437 12.603V1.87078H7.6191Z" fill="#262A2B"/>
</g>
<defs>
<clipPath id="clip0_163_2555">
<rect width="24" height="24" fill="white"/>
</clipPath>
</defs>
</svg>
