<svg width="24" height="24" viewBox="0 0 24 24" fill="none" xmlns="http://www.w3.org/2000/svg">
<g clip-path="url(#clip0_161_2514)">
<path d="M7.48678 5.02326C7.02421 5.02326 6.64062 4.64372 6.64062 4.18605V0.837209C6.64062 0.379535 7.02421 0 7.48678 0C7.94934 0 8.33293 0.379535 8.33293 0.837209V4.18605C8.33293 4.64372 7.94934 5.02326 7.48678 5.02326Z" fill="#262A2B"/>
<path d="M16.5131 5.02326C16.0506 5.02326 15.667 4.64372 15.667 4.18605V0.837209C15.667 0.379535 16.0506 0 16.5131 0C16.9757 0 17.3593 0.379535 17.3593 0.837209V4.18605C17.3593 4.64372 16.9757 5.02326 16.5131 5.02326Z" fill="#262A2B"/>
<path d="M16.5128 24H7.48718C3.36923 24 1 21.6558 1 17.5814V8.09304C1 4.01862 3.36923 1.67444 7.48718 1.67444H16.5128C20.6308 1.67444 23 4.01862 23 8.09304V17.5814C23 21.6558 20.6308 24 16.5128 24ZM7.48718 3.34886C4.26051 3.34886 2.69231 4.90049 2.69231 8.09304V17.5814C2.69231 20.774 4.26051 22.3256 7.48718 22.3256H16.5128C19.7395 22.3256 21.3077 20.774 21.3077 17.5814V8.09304C21.3077 4.90049 19.7395 3.34886 16.5128 3.34886H7.48718Z" fill="#262A2B"/>
<path d="M16.5124 11.7209H7.48678C7.02421 11.7209 6.64062 11.3414 6.64062 10.8837C6.64062 10.426 7.02421 10.0465 7.48678 10.0465H16.5124C16.975 10.0465 17.3586 10.426 17.3586 10.8837C17.3586 11.3414 16.975 11.7209 16.5124 11.7209Z" fill="#262A2B"/>
<path d="M11.9996 17.3023H7.48678C7.02421 17.3023 6.64062 16.9228 6.64062 16.4651C6.64062 16.0074 7.02421 15.6279 7.48678 15.6279H11.9996C12.4622 15.6279 12.8458 16.0074 12.8458 16.4651C12.8458 16.9228 12.4622 17.3023 11.9996 17.3023Z" fill="#262A2B"/>
</g>
<defs>
<clipPath id="clip0_161_2514">
<rect width="24" height="24" fill="white"/>
</clipPath>
</defs>
</svg>
