<svg width="24" height="24" viewBox="0 0 24 24" fill="none" xmlns="http://www.w3.org/2000/svg">
<path fill-rule="evenodd" clip-rule="evenodd" d="M7.48716 3.71429C4.84065 3.71429 2.69231 5.89054 2.69231 8.57141C2.69231 11.8307 4.33465 14.514 6.40679 16.5422C8.35301 18.4471 10.6075 19.7008 12.0001 20.2327C13.393 19.7009 15.6475 18.4495 17.5934 16.5463C19.6651 14.5199 21.3077 11.8366 21.3077 8.57141C21.3077 5.88019 19.1604 3.71429 16.5128 3.71429C14.9485 3.71429 13.5497 4.47177 12.6783 5.65535C12.5189 5.87176 12.2682 5.99944 12.0017 5.99998C11.7351 6.00053 11.4839 5.87381 11.3238 5.65802C10.4492 4.48002 9.05884 3.71429 7.48716 3.71429ZM1 8.57141C1 4.94375 3.90602 2 7.48716 2C9.24506 2 10.8342 2.70907 11.9983 3.85006C13.1676 2.7006 14.7657 2 16.5128 2C20.0929 2 23 4.93121 23 8.57141C23 12.4605 21.0379 15.5601 18.7689 17.7795C16.5057 19.9932 13.8579 21.4129 12.2704 21.955C12.095 22.015 11.905 22.015 11.7296 21.955C10.1416 21.4126 7.49386 19.9899 5.2309 17.775C2.96227 15.5545 1 12.455 1 8.57141Z" fill="#0F1313"/>
</svg>
