<svg width="66" height="102" viewBox="0 0 66 102" fill="none" xmlns="http://www.w3.org/2000/svg">
<g opacity="0.1" clip-path="url(#clip0_397_10174)">
<path d="M28.7847 73.6877C28.6325 73.0466 28.2037 72.6286 27.6712 72.3081C27.2078 72.0224 26.6822 71.904 26.1497 71.7995C24.9255 71.5626 23.6806 71.4859 22.4357 71.3884C19.7108 71.1724 16.979 70.9912 14.254 70.7683C13.1336 70.6777 12.0202 70.5244 10.9412 70.183C10.1113 69.9252 9.35747 69.535 8.70736 68.9567C7.64228 68.0161 7.31031 66.8735 7.74603 65.4939C8.2509 63.8774 9.30906 62.7348 10.6992 61.8708C12.7602 60.5888 15.0217 59.8433 17.3939 59.3764C20.9419 58.6797 24.5244 58.5682 28.1208 58.5821C33.5983 58.603 38.9859 59.2859 44.2767 60.7142C45.5769 61.0626 46.8564 61.4667 48.0459 62.1216C48.6061 62.4282 49.1456 62.7696 49.6228 63.1946C51.58 64.9226 51.8636 67.6817 50.266 69.765C49.5052 70.7543 48.5231 71.479 47.4511 72.0921C45.8605 72.9979 44.1176 73.4926 42.3471 73.8549C38.73 74.6004 35.0645 75.0045 31.3713 75.1717C31.2952 75.1717 31.2261 75.1787 31.15 75.1717C30.8457 75.1508 30.7074 75.2484 30.7627 75.5967C30.8249 76.0078 30.8249 76.4328 30.8664 76.8439C31.067 78.8366 30.8941 80.8293 30.7696 82.8151C30.6313 84.9262 30.4722 87.0374 30.3616 89.1485C30.1126 93.9909 30.1402 98.8403 30.0987 103.69C30.0987 103.913 30.1057 104.136 30.0711 104.352C30.0019 104.735 29.6907 104.986 29.3518 104.958C29.0268 104.937 28.7985 104.707 28.7363 104.331C28.7155 104.212 28.7155 104.087 28.7155 103.961C28.7709 99.1887 28.6948 94.409 28.9368 89.6362C29.0683 87.0792 29.2826 84.5291 29.4348 81.979C29.5524 79.8887 29.6285 77.7985 29.3726 75.7082C29.3311 75.3947 29.3034 75.1508 28.8815 75.1369C26.7583 75.0951 24.6351 75.0672 22.5257 75.4644C20.3402 75.8824 18.5973 77.032 17.1795 78.7182C15.575 80.6342 14.4062 82.822 13.3273 85.0586C11.4876 88.8628 9.99375 92.8273 8.2509 96.6734C7.45555 98.4431 6.7017 100.234 5.9271 102.01C5.74728 102.429 5.47064 102.582 5.13867 102.47C4.82745 102.366 4.65455 102.017 4.75137 101.613C4.82053 101.328 4.94502 101.056 5.04876 100.784C6.52188 96.9799 8.25781 93.2872 9.81393 89.5108C10.8375 87.0304 11.9441 84.5918 13.2028 82.2298C13.9567 80.8154 14.8073 79.4707 15.7894 78.2096C17.8781 75.5062 20.6237 74.0778 24.0057 73.82C25.3958 73.7155 26.7859 73.6458 28.1761 73.7016C28.3697 73.7086 28.5634 73.7434 28.7847 73.6389V73.6877ZM27.6712 59.9965C23.0374 59.9965 20.5822 60.1916 17.145 60.8745C15.1186 61.2786 13.1959 61.9753 11.4254 63.0692C10.4295 63.6893 9.60645 64.4766 9.17765 65.6123C8.72811 66.7898 8.94942 67.4936 9.99375 68.2042C10.8029 68.7547 11.7228 68.9985 12.6633 69.1518C14.7658 69.4932 16.8891 69.5559 19.0123 69.7371C21.2738 69.9252 23.5492 70.0158 25.8039 70.3154C27.8441 70.5871 29.5247 71.3396 30.2647 73.4647C30.3546 73.7155 30.5345 73.7922 30.7765 73.7782C31.0186 73.7643 31.2676 73.7643 31.5096 73.7573C33.9302 73.6946 36.3301 73.395 38.73 73.0745C40.7426 72.8028 42.7344 72.4335 44.664 71.7925C46.2408 71.2699 47.6794 70.5105 48.8413 69.2912C49.8372 68.2391 50.1692 67.0128 49.6781 65.6193C49.3669 64.7414 48.703 64.1631 47.9422 63.6893C46.8356 62.9926 45.6184 62.5536 44.3666 62.2052C38.7992 60.6515 33.1211 59.9478 27.6712 59.9896V59.9965Z" fill="white"/>
<path d="M62.0371 46.508C61.2418 45.4211 60.3289 44.4666 59.243 43.6932C56.2207 41.5402 52.9563 39.9307 49.277 39.241C46.5797 38.7393 43.8963 38.5651 41.2198 39.3315C41.0538 39.3803 40.8878 39.4291 40.7218 39.436C40.4313 39.443 40.1893 39.3106 40.0855 39.0319C39.9818 38.7532 40.051 38.4954 40.2654 38.2864C40.4313 38.1262 40.6319 38.0495 40.8463 37.9938C42.6791 37.4991 44.5326 37.2831 46.4345 37.4364C51.3864 37.8266 55.8403 39.5406 59.8793 42.4251C61.3317 43.4632 62.5005 44.7731 63.5794 46.1875C63.6555 46.2851 63.7247 46.3896 63.78 46.5011C64.1189 47.1769 63.8699 47.7413 63.1368 47.8876C62.4936 48.013 61.8366 48.0966 61.1795 48.1733C58.3993 48.4938 55.619 48.4589 52.8388 48.2011C50.266 47.9642 47.7693 47.3929 45.404 46.3548C42.2918 44.9891 39.6637 43.0104 37.7617 40.1258C37.6027 39.882 37.4505 39.7287 37.1255 39.7496C35.7768 39.8332 34.4697 40.1189 33.1764 40.509C32.8652 40.6066 32.8652 40.8365 32.8444 41.0804C32.7199 42.3275 32.5885 43.5747 32.4433 44.8219C32.381 45.3863 32.2911 45.9437 32.1874 46.5011C32.1252 46.8425 32.2081 46.9818 32.5816 47.0097C34.0686 47.1142 35.5348 47.372 36.9871 47.7274C37.5819 47.8737 38.1629 48.0548 38.7231 48.3057C40.7011 49.2045 41.7731 50.6955 41.7316 52.9251C41.7108 54.2838 41.4895 55.6215 41.2405 56.9523C40.8256 59.1749 40.4313 61.4045 39.7674 63.5714C39.5323 64.3239 39.2694 65.0625 38.8614 65.7453C38.1629 66.8949 37.16 67.6195 35.8114 67.6404C32.6369 67.6892 29.4556 67.724 26.3018 67.2224C25.7209 67.1318 25.1607 66.9715 24.6143 66.7346C23.5216 66.2678 22.8507 65.4526 22.6017 64.2821C22.3666 63.1464 22.2559 61.9968 22.0969 60.8541C21.6888 57.9068 21.3084 54.9526 21.1286 51.9775C21.1079 51.6361 21.0871 51.2877 21.1079 50.9463C21.1355 50.5004 21.3638 50.2496 21.7096 50.2565C22.0484 50.2565 22.2836 50.4934 22.3182 50.9463C22.4219 52.3468 22.5741 53.7403 22.7539 55.1338C23.1274 57.9905 23.4732 60.8471 23.895 63.6899C24.0472 64.721 24.6005 65.3272 25.5618 65.6059C26.3641 65.8428 27.1802 65.9822 28.0101 66.0518C30.3477 66.2609 32.6992 66.2191 35.0437 66.2678C35.1406 66.2678 35.2374 66.2678 35.3342 66.2678C36.586 66.2957 37.409 65.6826 37.907 64.5608C38.4879 63.2509 38.8268 61.8644 39.1242 60.4639C39.5738 58.3458 40.0233 56.2277 40.2584 54.0747C40.2999 53.7055 40.3345 53.3362 40.3345 52.9739C40.3484 51.3156 39.6429 50.2356 38.1283 49.5737C37.2015 49.1696 36.2195 48.9885 35.2374 48.7794C34.2761 48.5774 33.3009 48.5077 32.3326 48.3753C31.9384 48.3196 31.8278 48.4868 31.7517 48.8282C31.6549 49.309 31.5235 49.7828 31.3782 50.2565C31.1846 50.8697 30.8733 51.4271 30.4445 51.9148C29.8429 52.6116 29.1028 53.0435 28.1692 53.1202C27.3047 53.1968 26.454 53.1272 25.6379 52.8624C24.8771 52.6116 24.2339 52.1726 23.8535 51.4271C23.3279 50.4029 23.5423 49.302 24.4207 48.5634C24.9532 48.1175 25.5687 47.8179 26.2188 47.6019C27.526 47.17 28.8539 46.8634 30.2371 46.8703C30.5483 46.8703 30.735 46.8076 30.7904 46.4523C31.0393 44.801 31.2676 43.1427 31.392 41.4705C31.399 41.373 31.3851 41.2755 31.3713 41.157C31.0532 41.0943 30.7973 41.2615 30.5275 41.3451C28.591 41.9583 26.6338 42.4599 24.5936 42.6202C22.6986 42.7665 20.8381 42.5644 18.9777 42.2579C16.239 41.798 13.6108 41.0037 11.1141 39.7565C8.96325 38.6836 7.10975 37.2204 5.44297 35.4924C3.72087 33.7088 2.15093 31.7857 0.74005 29.7443C0.47724 29.3611 0.214429 28.9709 0.0691919 28.518C-0.193619 27.7098 0.166017 27.1245 1.00978 27.0688C4.5508 26.8528 8.09183 26.7483 11.6259 27.1384C14.2125 27.4241 16.73 27.9258 19.1506 28.943C22.989 30.5595 26.0874 33.0329 28.2867 36.6072C28.349 36.7118 28.4251 36.8093 28.4804 36.9208C28.6602 37.2831 28.9092 37.3946 29.3172 37.2901C29.8843 37.1507 30.4653 37.0462 31.0462 36.9696C31.4474 36.9208 31.5719 36.7327 31.558 36.3355C31.4958 34.8654 31.1846 33.4649 30.486 32.155C29.746 30.7824 28.7709 29.584 27.7888 28.3926C25.6655 25.8076 23.7705 23.0694 22.0484 20.1988C20.0981 16.938 18.9293 13.4404 18.4798 9.66398C18.1824 7.19053 17.9334 4.72404 17.9196 2.22968C17.9196 1.98581 17.8988 1.73498 17.9818 1.49809C18.1685 0.968562 18.6665 0.766505 19.1575 1.03127C19.282 1.10094 19.3996 1.19849 19.5103 1.28907C23.0167 4.26418 25.6517 7.87334 27.3531 12.1723C28.349 14.6806 28.9507 17.2794 29.3449 19.941C29.3864 20.2337 29.4002 20.5263 29.5731 20.8677C29.7944 19.8992 29.9881 18.9934 30.2094 18.0946C31.4197 13.2313 33.453 8.77214 36.6759 4.90519C38.2182 3.05881 40.0302 1.5399 42.1189 0.355423C42.2434 0.285748 42.3748 0.209106 42.5062 0.146399C43.1909 -0.160171 43.7165 0.0418864 43.9655 0.75257C44.2006 1.40751 44.2628 2.09729 44.3666 2.77314C45.0236 7.20446 44.4081 11.4546 42.5269 15.5167C41.6002 17.5233 40.3484 19.3 38.8199 20.8886C37.7687 21.9895 36.6413 23.0067 35.5209 24.0379C34.4974 24.9855 33.46 25.9261 32.5954 27.0409C32.4156 27.2708 32.2635 27.5286 32.0837 27.7655C31.9177 27.9954 31.9315 28.1905 32.0837 28.4344C32.7614 29.5143 33.4185 30.6082 34.0893 31.7021C34.1377 31.7788 34.1723 31.8833 34.3175 31.9042C34.5181 31.8275 34.5804 31.5976 34.691 31.4165C36.669 28.1696 39.2003 25.4244 42.1327 23.0346C45.1827 20.5472 48.703 19.098 52.5206 18.3385C54.8928 17.8647 57.2996 17.6139 59.6995 17.3212C61.3524 17.1192 62.9846 16.8335 64.6168 16.527C64.7828 16.4921 64.9557 16.4433 65.1217 16.4433C65.8341 16.4433 66.1799 17.0286 65.8341 17.6557C65.7026 17.8926 65.5297 18.1016 65.3707 18.3176C64.7067 19.2303 64.112 20.1988 63.5518 21.1743C60.0799 27.229 54.9897 31.305 48.5162 33.7157C44.2905 35.2904 39.9265 36.3564 35.5555 37.4015C34.8432 37.5688 34.1239 37.722 33.4115 37.8893C33.0035 37.9868 32.7476 38.5372 32.9274 38.9135C33.0104 39.0946 33.1764 39.0319 33.3147 39.0041C33.7643 38.8926 34.2138 38.7672 34.6633 38.6696C35.5694 38.4676 36.4961 38.3909 37.4229 38.3282C37.9623 38.2864 38.3565 38.4745 38.6401 38.9623C39.8158 41.0177 41.5241 42.5435 43.4882 43.7977C46.0334 45.4281 48.8482 46.2851 51.8014 46.6822C55.0381 47.1142 58.2817 47.1491 61.5184 46.7101C61.6567 46.6892 61.8158 46.724 61.9887 46.522L62.0371 46.508ZM63.6624 18.2201C63.4688 18.1225 63.2751 18.1922 63.0953 18.227C61.7951 18.4709 60.4879 18.6172 59.1808 18.7914C56.8847 19.098 54.5678 19.3209 52.2993 19.8156C48.9865 20.5402 45.9158 21.8222 43.2393 23.9543C40.2792 26.3093 37.7548 29.0615 35.7976 32.3222C35.597 32.6567 35.4034 33.0051 35.1821 33.3256C34.6357 34.1268 33.9717 34.1199 33.46 33.3047C33.3424 33.1165 33.2386 32.9214 33.1211 32.7333C32.3534 31.4792 31.6064 30.2041 30.7973 28.9709C30.3892 28.3508 30.3892 27.8491 30.7834 27.222C31.5719 25.9818 32.547 24.9297 33.5983 23.9334C34.8432 22.7489 36.1296 21.6132 37.3399 20.4009C41.9805 15.7396 43.758 10.0751 43.0664 3.56743C42.9972 2.94036 42.9765 2.29935 42.7482 1.69318C42.4647 1.69318 42.2779 1.87433 42.0774 1.99975C40.5282 2.96823 39.1588 4.14573 37.9623 5.53226C34.857 9.14142 32.9067 13.3358 31.6825 17.9135C31.0808 20.15 30.7558 22.4423 30.3754 24.7207C30.3339 24.9924 30.2786 25.2572 30.1541 25.5011C30.0088 25.7867 29.7737 25.947 29.4417 25.9191C29.1443 25.8982 28.9438 25.724 28.8469 25.4453C28.7985 25.306 28.7639 25.1597 28.7363 25.0203C28.591 24.1494 28.432 23.2784 28.3006 22.4005C27.9755 20.2337 27.6989 18.0598 27.1248 15.9417C25.8177 11.1411 23.5561 6.90486 19.8491 3.5326C19.7177 3.41415 19.6278 3.18422 19.3581 3.2748C19.3581 3.61621 19.3443 3.95761 19.3581 4.29902C19.4688 6.661 19.7523 9.00904 20.1465 11.3362C20.5269 13.5867 21.2185 15.7257 22.2974 17.7393C23.4109 19.8226 24.6351 21.8362 25.9906 23.7662C27.3669 25.7171 28.923 27.5147 30.3616 29.4098C31.565 30.9915 32.4986 32.7055 32.7891 34.7121C32.8513 35.1232 32.8721 35.5412 32.9205 35.9593C32.9897 36.5376 32.9966 36.5445 33.536 36.4261C34.0824 36.3076 34.6288 36.1753 35.1751 36.0429C39.5461 34.9978 43.917 33.9387 48.1358 32.3571C53.0047 30.5246 57.1544 27.6889 60.3496 23.5153C61.5876 21.8919 62.5558 20.0873 63.6347 18.3594C63.6555 18.3246 63.6417 18.2619 63.6486 18.2131L63.6624 18.2201ZM1.68063 28.3995C1.72213 28.7479 1.8812 28.9082 2.00569 29.0824C3.29899 30.9357 4.73754 32.6776 6.27982 34.3219C8.49988 36.6909 11.1211 38.4258 14.1641 39.5336C16.2666 40.3 18.4244 40.7808 20.6307 41.0664C22.6501 41.3312 24.6696 41.3242 26.6822 40.9132C28.1208 40.6205 29.5178 40.1885 30.9079 39.7356C31.5373 39.5336 31.5373 39.5336 31.5511 38.8717C31.5511 38.6905 31.6272 38.4815 31.4405 38.3212C30.8664 38.4188 30.2924 38.5163 29.7184 38.6278C28.2729 38.8926 28.0654 38.802 27.2562 37.5409C27.1663 37.3946 27.0764 37.2482 26.9796 37.1089C26.1704 35.9035 25.299 34.7539 24.227 33.7645C21.8202 31.5279 18.9708 30.1205 15.8447 29.2775C13.1198 28.5459 10.3119 28.3508 7.50396 28.2602C5.5813 28.1975 3.65863 28.3577 1.68755 28.4065L1.68063 28.3995ZM27.5605 51.7197C28.7155 51.8591 29.4279 51.2041 29.912 50.1938C30.1126 49.7688 30.2371 49.3159 30.3339 48.863C30.4515 48.3196 30.4031 48.2569 29.8498 48.2778C28.4942 48.3335 27.2009 48.654 25.9629 49.2114C25.7624 49.302 25.5756 49.4205 25.4027 49.5528C24.8495 49.9848 24.8149 50.5701 25.3059 51.0717C25.5549 51.3226 25.8592 51.4689 26.1912 51.5664C26.62 51.6849 27.0488 51.7406 27.5467 51.7197H27.5605Z" fill="white"/>
</g>
<defs>
<clipPath id="clip0_397_10174">
<rect width="66" height="102" fill="white"/>
</clipPath>
</defs>
</svg>
